<svg width="12" height="12" viewBox="0 0 12 12" fill="none" xmlns="http://www.w3.org/2000/svg">
<g id="12/User interface/Edit/Black">
<path id="Edit" fill-rule="evenodd" clip-rule="evenodd" d="M4.77539 9.74664L8.8757 4.44416C9.09855 4.15822 9.17778 3.82763 9.1035 3.49102C9.03912 3.18501 8.85094 2.89405 8.56867 2.67332L7.88034 2.12652C7.28114 1.64995 6.53833 1.70012 6.11245 2.24692L5.65191 2.84439C5.59248 2.91914 5.60734 3.0295 5.68162 3.0897C5.68162 3.0897 6.84536 4.02277 6.87012 4.04284C6.94935 4.11809 7.00877 4.21842 7.02363 4.33881C7.04839 4.57459 6.88497 4.79532 6.64232 4.82542C6.52842 4.84047 6.41948 4.80535 6.34025 4.74014L5.11709 3.76693C5.05766 3.72228 4.96852 3.73181 4.919 3.79201L2.01214 7.55442C1.82396 7.79019 1.75959 8.0962 1.82396 8.39218L2.19537 10.0025C2.21518 10.0878 2.28946 10.148 2.37859 10.148L4.01278 10.1279C4.3099 10.1229 4.58721 9.98744 4.77539 9.74664ZM7.06388 9.24496H9.72858C9.98857 9.24496 10.2 9.45916 10.2 9.72253C10.2 9.9864 9.98857 10.2001 9.72858 10.2001H7.06388C6.80389 10.2001 6.59244 9.9864 6.59244 9.72253C6.59244 9.45916 6.80389 9.24496 7.06388 9.24496Z" fill="#373737"/>
</g>
</svg>
