<svg width="20" height="20" viewBox="0 0 20 20" fill="none" xmlns="http://www.w3.org/2000/svg">
<g id="20/User interface/Hydraulic/Black">
<path id="Hydraulic" d="M12.4312 16.989C12.4366 16.9772 12.4415 16.9654 12.4468 16.9537C12.4316 16.9427 12.4165 16.9317 12.4005 16.9214C11.6337 16.4218 10.8654 15.9244 10.1016 15.4202C10.0034 15.3552 9.94356 15.3932 9.86661 15.4433C9.13694 15.9194 8.40614 16.3937 7.67647 16.869C7.6344 16.8963 7.59763 16.9324 7.52789 16.989L5.47572 17C5.68534 17.0004 5.8597 16.9556 6.03899 16.8367C7.01845 16.1871 8.00662 15.5512 8.99177 14.9103C9.03384 14.8829 9.07364 14.8522 9.13353 14.8089C9.08198 14.7694 9.04256 14.7345 8.99859 14.706C8.17833 14.171 7.35732 13.6368 6.53668 13.1026C6.48361 13.0681 6.43017 13.0347 6.37824 12.9986C5.74295 12.5593 5.73916 11.7472 6.38923 11.3265C7.0628 10.891 7.75418 10.4832 8.43798 10.0629C8.65252 9.93118 8.86668 9.79868 9.10169 9.65364C9.03877 9.6096 8.99632 9.57657 8.95083 9.54847C7.96569 8.94289 6.9813 8.33654 5.9935 7.7359C5.91769 7.68996 5.81763 7.66452 5.72817 7.66376C5.11563 7.6573 4.50271 7.66718 3.89017 7.65541C3.72377 7.65237 3.54789 7.61972 3.39551 7.55555C3.14345 7.45038 3.0013 7.24498 3.0013 6.96098C3.00054 5.89143 2.99827 4.82226 3.00244 3.75271C3.00358 3.37759 3.19765 3.1365 3.56153 3.0431C3.66426 3.0169 3.7738 3.00589 3.88031 3.00513C4.55009 3.00171 5.21987 2.99336 5.88889 3.01007C6.07083 3.01462 6.26301 3.07347 6.42827 3.15358C6.64016 3.25648 6.74591 3.45353 6.74591 3.69728C6.74591 3.99343 6.74591 4.28958 6.74591 4.60015H13.2534C13.2534 4.32223 13.2526 4.05228 13.2534 3.78195C13.2553 3.3495 13.4858 3.08296 13.9129 3.02146C13.9941 3.00969 14.0763 3.00361 14.1582 3.00323C14.7961 3.00209 15.4344 2.9964 16.0724 3.00779C16.2452 3.01083 16.4272 3.0412 16.5879 3.10271C16.8434 3.20066 16.9942 3.40341 16.995 3.68741C16.9988 4.78202 17.0037 5.87662 16.9957 6.97161C16.9927 7.37938 16.6584 7.65199 16.1743 7.65882C15.6566 7.66604 15.1376 7.67667 14.6206 7.65503C14.2772 7.6406 13.9914 7.72906 13.7011 7.91396C12.8383 8.4645 11.9593 8.98921 11.0868 9.52417C11.0284 9.55986 10.9712 9.59859 10.8912 9.65022C11.1618 9.81728 11.4124 9.97295 11.6641 10.1275C12.2724 10.5007 12.8819 10.8728 13.4899 11.2468C14.2973 11.7438 14.3026 12.5593 13.5039 13.0772C12.6716 13.6167 11.8403 14.1585 11.0091 14.6995C10.9628 14.7295 10.92 14.7652 10.8578 14.8112C11.1429 14.998 11.4109 15.1745 11.6796 15.3495C12.479 15.8701 13.2777 16.3925 14.0809 16.9074C14.1646 16.9613 14.2783 16.9935 14.3784 16.9935H12.4309M3.94437 3.93951V6.7252H16.0606V3.94331H14.1718C14.1718 4.23642 14.1726 4.51396 14.1718 4.79113C14.1707 5.12372 14.027 5.35267 13.7162 5.45898C13.5646 5.51099 13.3955 5.5315 13.2344 5.5315C11.0807 5.53605 8.92733 5.53453 6.77358 5.53377C6.6792 5.53377 6.5833 5.53377 6.49043 5.51897C6.05074 5.44835 5.82862 5.18523 5.82786 4.74215C5.82748 4.47827 5.82786 4.2144 5.82786 3.93951H3.94437ZM13.1844 12.1618C13.1124 12.1098 13.065 12.0707 13.0135 12.0388C12.0556 11.4506 11.0959 10.8652 10.1407 10.2725C10.0307 10.2042 9.95607 10.2133 9.85259 10.2774C8.89663 10.869 7.93726 11.4552 6.97941 12.0441C6.92899 12.0752 6.88389 12.1147 6.81869 12.1633C6.88464 12.2149 6.92558 12.2525 6.97145 12.2825C7.9293 12.9067 8.88905 13.5279 9.84387 14.1566C9.96478 14.2363 10.0463 14.2284 10.1626 14.152C11.1072 13.5309 12.0564 12.9162 13.0032 12.2988C13.0589 12.2624 13.1101 12.2187 13.1844 12.1625V12.1618ZM7.7068 7.66414C7.73636 7.70211 7.74394 7.72033 7.75797 7.72906C8.47361 8.16911 9.18849 8.61029 9.90793 9.0435C9.95644 9.07274 10.0554 9.0659 10.1065 9.03477C10.8044 8.61447 11.4984 8.18695 12.1921 7.7602C12.2239 7.74045 12.2482 7.70818 12.294 7.66414H7.70642H7.7068Z" fill="#373737"/>
</g>
</svg>
