<svg width="14" height="13" viewBox="0 0 14 13" fill="none" xmlns="http://www.w3.org/2000/svg">
<path d="M12.4966 12.5998H1.5055C1.3762 12.5608 1.23896 12.5372 1.11925 12.4797C0.634106 12.2466 0.412218 11.8536 0.411944 11.3367C0.41167 9.70645 0.410848 8.07618 0.413861 6.44591C0.413861 6.34178 0.391946 6.27687 0.28429 6.23501C0.085138 6.15764 -5.61714e-05 6.00529 0.000765637 5.7973C0.00377893 5.03953 -0.0063567 4.28149 0.00761404 3.52399C0.0111752 3.33587 0.0525396 3.13371 0.13472 2.9644C0.359896 2.5002 0.767239 2.28982 1.29018 2.28771C2.04186 2.28453 2.79355 2.28347 3.54523 2.29009C3.66932 2.29115 3.71561 2.25088 3.75095 2.14171C3.87148 1.76813 4.00297 1.39772 4.13254 1.02678C4.21363 0.794418 4.34704 0.700889 4.60043 0.700624C6.19939 0.699829 7.79836 0.699829 9.39732 0.700624C9.65756 0.700624 9.78823 0.793358 9.87206 1.03553C10.0022 1.4107 10.1337 1.78588 10.2578 2.16291C10.2887 2.25724 10.3328 2.29009 10.4386 2.28956C11.1946 2.28453 11.951 2.28691 12.7073 2.28691C13.1393 2.28691 13.5097 2.42972 13.7535 2.78079C13.8691 2.94718 13.92 3.15543 14 3.34461V5.96263C13.9112 6.05192 13.8359 6.16188 13.7304 6.22441C13.6288 6.28455 13.5864 6.33675 13.5869 6.45545C13.5916 8.08334 13.5896 9.71148 13.5905 11.3396C13.5905 11.7617 13.4453 12.1239 13.0782 12.3626C12.9067 12.4742 12.6917 12.5229 12.4964 12.6L12.4966 12.5998ZM8.89821 7.65755C8.92396 7.65252 8.93355 7.65252 8.94149 7.64854C10.3265 6.98271 11.711 6.31608 13.0971 5.6529C13.1681 5.61899 13.1818 5.57765 13.1815 5.50983C13.1796 4.84903 13.1812 4.18796 13.1798 3.52717C13.1793 3.23624 13.0166 3.08045 12.7128 3.08045C8.90451 3.07992 5.09598 3.07992 1.28772 3.08045C0.985018 3.08045 0.822848 3.23704 0.8223 3.52902C0.821204 4.18558 0.824218 4.84187 0.819287 5.49843C0.818465 5.58905 0.852707 5.62853 0.930779 5.66615C2.28813 6.31635 3.64412 6.9692 5.00065 7.62099C5.03188 7.63609 5.06557 7.64589 5.0957 7.65755C5.49921 7.15467 5.72959 7.0471 6.39361 7.0471C6.85383 7.0471 7.31404 7.0418 7.77398 7.05027C7.9219 7.05292 8.07394 7.07598 8.21611 7.11678C8.51689 7.20315 8.73495 7.39949 8.89821 7.65808V7.65755ZM12.77 6.69894C12.7358 6.71325 12.7193 6.71908 12.704 6.7265C11.502 7.30437 10.2997 7.88144 9.09928 8.46249C9.05408 8.48448 9.01299 8.53932 8.99573 8.58728C8.81521 9.09308 8.38924 9.41262 7.83863 9.42295C7.27843 9.43355 6.71741 9.43408 6.15721 9.42242C5.61262 9.41103 5.18419 9.08805 5.0075 8.59443C4.98695 8.53694 4.92943 8.476 4.87272 8.44844C3.70548 7.88223 2.53577 7.32053 1.36661 6.75803C1.32716 6.73895 1.28607 6.72359 1.23238 6.7008V6.84414C1.23238 8.33822 1.23238 9.8323 1.23238 11.3264C1.23238 11.6613 1.38414 11.8062 1.73423 11.8062C5.24747 11.8062 8.7607 11.8062 12.2742 11.8062C12.6202 11.8062 12.77 11.6592 12.77 11.3206C12.77 10.1659 12.77 9.01121 12.77 7.85653V6.69868V6.69894ZM9.43705 2.2832C9.35843 2.05269 9.28063 1.83728 9.21269 1.61896C9.18365 1.52543 9.13982 1.48966 9.03326 1.49072C8.42732 1.49655 7.82137 1.49337 7.21542 1.49337C6.46374 1.49337 5.71206 1.49257 4.96038 1.49549C4.91354 1.49549 4.83546 1.51351 4.82451 1.54186C4.73219 1.78403 4.65193 2.03043 4.56536 2.2832H9.43705ZM7.00038 8.63312C7.26007 8.63312 7.51977 8.63444 7.77946 8.63285C8.046 8.631 8.23008 8.46832 8.23036 8.23727C8.23063 8.00623 8.04655 7.84143 7.78083 7.84064C7.26144 7.83905 6.74206 7.83905 6.22268 7.84064C5.95614 7.84143 5.77205 8.00517 5.77178 8.23621C5.7715 8.46726 5.95559 8.63126 6.22131 8.63312C6.481 8.63497 6.74069 8.63338 7.00038 8.63338V8.63312Z" fill="#373737"/>
</svg>
