<svg width="15" height="15" viewBox="0 0 15 15" fill="none" xmlns="http://www.w3.org/2000/svg">
<g id="icono_copiar">
<g id="Vector">
<path id="Vector_2" d="M1.79602 6.24609C1.79602 5.56687 2.34727 5.01562 3.02649 5.01562H4.08118C4.22104 5.01563 4.35517 5.07118 4.45407 5.17008C4.55296 5.26898 4.60852 5.40311 4.60852 5.54297C4.60852 5.68283 4.55296 5.81696 4.45407 5.91586C4.35517 6.01475 4.22104 6.07031 4.08118 6.07031H3.02649C2.97987 6.07031 2.93516 6.08883 2.90219 6.1218C2.86923 6.15476 2.85071 6.19947 2.85071 6.24609V11.5195C2.85071 11.6166 2.92946 11.6953 3.02649 11.6953H8.29993C8.34655 11.6953 8.39126 11.6768 8.42422 11.6438C8.45719 11.6109 8.47571 11.5662 8.47571 11.5195V10.4648C8.47571 10.325 8.53127 10.1909 8.63016 10.092C8.72906 9.99306 8.86319 9.9375 9.00305 9.9375C9.14291 9.9375 9.27704 9.99306 9.37594 10.092C9.47484 10.1909 9.5304 10.325 9.5304 10.4648V11.5195C9.5304 11.8459 9.40076 12.1588 9.17 12.3896C8.93924 12.6204 8.62627 12.75 8.29993 12.75H3.02649C2.70015 12.75 2.38717 12.6204 2.15642 12.3896C1.92566 12.1588 1.79602 11.8459 1.79602 11.5195V6.24609Z" fill="#373737"/>
<path id="Vector_3" d="M5.31165 2.73047C5.31165 2.05125 5.8629 1.5 6.54211 1.5H11.8156C12.4948 1.5 13.046 2.05125 13.046 2.73047V8.00391C13.046 8.33025 12.9164 8.64322 12.6856 8.87398C12.4549 9.10474 12.1419 9.23438 11.8156 9.23438H6.54211C6.21577 9.23438 5.9028 9.10474 5.67204 8.87398C5.44128 8.64322 5.31165 8.33025 5.31165 8.00391V2.73047ZM6.54211 2.55469C6.49549 2.55469 6.45078 2.57321 6.41782 2.60617C6.38485 2.63914 6.36633 2.68385 6.36633 2.73047V8.00391C6.36633 8.10094 6.44508 8.17969 6.54211 8.17969H11.8156C11.8622 8.17969 11.9069 8.16117 11.9398 8.1282C11.9728 8.09524 11.9913 8.05053 11.9913 8.00391V2.73047C11.9913 2.68385 11.9728 2.63914 11.9398 2.60617C11.9069 2.57321 11.8622 2.55469 11.8156 2.55469H6.54211Z" fill="#373737"/>
</g>
</g>
</svg>
