<svg width="20" height="21" viewBox="0 0 20 21" fill="none" xmlns="http://www.w3.org/2000/svg">
<path d="M10.0028 2.5C10.1586 2.53722 10.3158 2.56893 10.4689 2.61442C10.8347 2.7247 11.1532 2.91906 11.4242 3.19201C11.8997 3.67035 12.374 4.14731 12.8414 4.63392C13.3021 5.11502 13.5284 5.6995 13.5284 6.37084C13.5284 8.15462 13.5311 9.9384 13.5284 11.7222C13.5257 13.4646 12.2087 14.8252 10.4933 14.8431C9.28061 14.8555 8.06656 14.8569 6.85387 14.8431C5.28076 14.8252 4.03556 13.681 3.84044 12.093C3.82554 11.9689 3.82554 11.8421 3.82554 11.718C3.82554 9.68889 3.82147 7.65836 3.82554 5.6292C3.8296 4.12663 4.78214 2.90666 6.20349 2.57444C6.32273 2.54549 6.44197 2.52481 6.56256 2.5C7.70885 2.5 8.8565 2.5 10.0028 2.5ZM9.88898 3.75306C9.83479 3.7503 9.7982 3.74755 9.76026 3.74755C8.80773 3.74479 7.85519 3.7379 6.90265 3.73927C5.8241 3.73927 5.03416 4.54018 5.03281 5.63609C5.0301 7.66111 5.0301 9.68613 5.03281 11.7112C5.03281 12.8043 5.83088 13.6107 6.90265 13.6121C8.08282 13.6121 9.26299 13.6121 10.4418 13.6121C11.5176 13.6121 12.3103 12.8084 12.3103 11.7153C12.3103 9.93151 12.3049 8.14773 12.3022 6.36394C12.3022 6.31294 12.3022 6.26331 12.3022 6.20542C11.9092 6.20542 11.5407 6.20542 11.1708 6.20542C10.4025 6.20542 9.88898 5.68158 9.88763 4.89859C9.88763 4.52226 9.88763 4.14731 9.88763 3.75444L9.88898 3.75306Z" fill="#373737"/>
<path d="M16.1747 11.076C16.1747 12.1703 16.179 13.2646 16.1747 14.3576C16.166 15.8649 15.1511 17.0899 13.6388 17.4223C13.4291 17.4682 13.2094 17.496 12.994 17.496C11.0422 17.5015 9.09183 17.5001 7.14004 17.4987C6.79305 17.4987 6.5357 17.2888 6.47932 16.9717C6.42872 16.6797 6.6051 16.3877 6.90148 16.2946C7.00413 16.2626 7.11979 16.2542 7.22967 16.2542C9.12074 16.2515 11.0104 16.2542 12.9014 16.2515C13.7862 16.2515 14.525 15.755 14.7795 14.9708C14.8503 14.7525 14.8821 14.5133 14.8821 14.2825C14.8894 12.0604 14.8879 9.83839 14.885 7.61635C14.885 7.39526 14.9356 7.20058 15.1207 7.05875C15.3289 6.89884 15.5631 6.86686 15.8031 6.97532C16.0489 7.08656 16.1747 7.28262 16.1761 7.54543C16.1761 8.41589 16.1761 9.28636 16.1761 10.1568C16.1761 10.4627 16.1761 10.77 16.1761 11.076H16.1747Z" fill="#373737"/>
</svg>
