<svg width="14" height="14" viewBox="0 0 14 14" fill="none" xmlns="http://www.w3.org/2000/svg">
<path d="M4.66667 14H1.55556C0.7 14 0 13.3 0 12.4444V1.55556C0 0.7 0.7 0 1.55556 0H4.66667C5.52222 0 6.22222 0.7 6.22222 1.55556V12.4444C6.22222 13.3 5.52222 14 4.66667 14ZM9.33333 14H12.4444C13.3 14 14 13.3 14 12.4444V8.55556C14 7.7 13.3 7 12.4444 7H9.33333C8.47778 7 7.77778 7.7 7.77778 8.55556V12.4444C7.77778 13.3 8.47778 14 9.33333 14ZM14 3.88889V1.55556C14 0.7 13.3 0 12.4444 0H9.33333C8.47778 0 7.77778 0.7 7.77778 1.55556V3.88889C7.77778 4.74444 8.47778 5.44444 9.33333 5.44444H12.4444C13.3 5.44444 14 4.74444 14 3.88889Z" fill="#373737"/>
</svg>
