<svg width="14" height="14" viewBox="0 0 14 14" fill="none" xmlns="http://www.w3.org/2000/svg">
<path d="M3.23572 13.2998C2.9793 13.2434 2.71401 13.2073 2.4682 13.1274C1.42799 12.7889 0.716686 11.9037 0.702386 10.9511C0.699181 10.7369 0.699428 10.5227 0.701893 10.3084C0.705591 9.9681 1.01329 9.70106 1.39939 9.7C1.78475 9.69894 2.09295 9.96493 2.10231 10.3055C2.10971 10.5755 2.08925 10.8487 2.1319 11.1146C2.21943 11.6618 2.80031 12.0911 3.44701 12.096C4.53308 12.104 5.61939 12.0994 6.70571 12.0996C7.95992 12.0998 9.21438 12.1015 10.4686 12.0989C11.1562 12.0975 11.7102 11.733 11.8574 11.1765C11.8976 11.0249 11.891 10.8632 11.8979 10.7061C11.904 10.5658 11.8954 10.4251 11.9006 10.2846C11.9119 9.98817 12.1609 9.75303 12.5044 9.70887C12.8355 9.66641 13.1518 9.83437 13.264 10.1122C13.2759 10.1415 13.2882 10.1711 13.3 10.2005V11.1282C13.2924 11.1512 13.2808 11.174 13.2776 11.1975C13.1481 12.1499 12.3279 12.9645 11.2425 13.2136C11.0857 13.2495 10.9245 13.2715 10.7654 13.3L3.23572 13.3V13.2998Z" fill="#373737"/>
<path d="M7.77099 8.18124C7.79483 8.14189 7.81183 8.09583 7.84379 8.06445C8.34937 7.56521 8.85621 7.06721 9.36457 6.57045C9.56371 6.37598 9.8047 6.31273 10.0739 6.38494C10.3448 6.45765 10.5165 6.63718 10.5797 6.90511C10.6444 7.17901 10.5513 7.40734 10.3506 7.60306C9.81789 8.12247 9.28796 8.64487 8.75702 9.16603C8.36027 9.55547 7.96429 9.94565 7.56678 10.3343C7.20453 10.6884 6.7951 10.6884 6.43513 10.3351C5.50719 9.42474 4.57899 8.5144 3.65206 7.60281C3.34537 7.30127 3.31645 6.89116 3.57697 6.60008C3.85881 6.28485 4.32861 6.27215 4.64342 6.57792C5.15001 7.07044 5.65229 7.56695 6.1566 8.06172C6.18881 8.09334 6.22255 8.12372 6.28115 8.1785C6.28115 8.09732 6.28115 8.04553 6.28115 7.99399C6.28115 5.83241 6.2809 3.67059 6.28242 1.50901C6.28242 1.41066 6.28623 1.30832 6.3121 1.2142C6.40317 0.883027 6.72458 0.670878 7.06957 0.703248C7.41812 0.735867 7.69108 1.01251 7.71543 1.35912C7.71974 1.42087 7.71949 1.48337 7.71949 1.54537C7.71949 3.69873 7.71949 5.85208 7.71949 8.00544V8.14887C7.73674 8.15982 7.75424 8.17053 7.77149 8.18148L7.77099 8.18124Z" fill="#373737"/>
</svg>
