<svg width="18" height="18" viewBox="0 0 18 18" fill="none" xmlns="http://www.w3.org/2000/svg">
<g id="dashicons:pdf">
<path id="Vector" fill-rule="evenodd" clip-rule="evenodd" d="M5.4 12.4288H4.71429V13.2859H5.4C5.65714 13.2859 5.82857 13.1145 5.82857 12.8574C5.82857 12.6002 5.65714 12.4288 5.4 12.4288ZM9.85714 2.14307H3V15.8574H14.1429V6.42878L9.85714 2.14307ZM6.6 12.9431C6.6 13.6288 6.08571 14.1431 5.4 14.1431H4.71429V15.0002H3.85714V11.5716H5.4C6.08571 11.5716 6.6 12.0859 6.6 12.7716V12.9431ZM10.1143 13.3716C10.1143 14.2288 9.42857 15.0002 8.48571 15.0002H7.28571V11.5716H8.48571C9.34286 11.5716 10.1143 12.2574 10.1143 13.2002V13.3716ZM13.2857 12.4288H11.5714V13.2859H12.8571V14.1431H11.5714V15.0002H10.7143V11.5716H13.2857V12.4288ZM13.2857 10.7145H3.85714V3.00021H9.85714V6.42878H13.2857V10.7145ZM8.48571 12.4288H8.14286V14.1431H8.48571C9 14.1431 9.34286 13.8002 9.34286 13.2859C9.34286 12.7716 8.91429 12.4288 8.48571 12.4288Z" fill="#373737"/>
</g>
</svg>
