<svg width="19" height="18" viewBox="0 0 19 18" fill="none" xmlns="http://www.w3.org/2000/svg">
<g id="mdi:microsoft-excel" clip-path="url(#clip0_1749_15944)">
<path id="Vector" d="M15.3061 2.4375C15.4711 2.4375 15.6186 2.5 15.7486 2.625C15.8686 2.745 15.9286 2.89 15.9286 3.06V14.94C15.9286 15.11 15.8686 15.255 15.7486 15.375C15.6186 15.5 15.4711 15.5625 15.3061 15.5625H5.30109C5.13609 15.5625 4.98859 15.5 4.85859 15.375C4.73859 15.255 4.67859 15.11 4.67859 14.94V12.75H1.55109C1.38609 12.75 1.23859 12.69 1.10859 12.57C0.988589 12.44 0.928589 12.2925 0.928589 12.1275V5.8725C0.928589 5.7075 0.988589 5.56 1.10859 5.43C1.23859 5.31 1.38609 5.25 1.55109 5.25H4.67859V3.06C4.67859 2.89 4.73859 2.745 4.85859 2.625C4.98859 2.5 5.13609 2.4375 5.30109 2.4375M4.67859 9.795L5.56359 11.46H6.90609L5.42859 9.045L6.87609 6.6675H5.59359L4.77609 8.175L4.74609 8.22L4.72359 8.2725C4.59359 8.0075 4.45359 7.74 4.30359 7.47C4.17859 7.205 4.04609 6.9375 3.90609 6.6675H2.54859L3.96609 9.06L2.42859 11.46H3.76359M9.83859 14.625V12.75H5.61609V14.625M9.83859 11.8125V9.4725H8.42859V11.8125M9.83859 8.535V6.1875H8.42859V8.535M9.83859 5.25V3.375H5.61609V5.25M14.9911 14.625V12.75H10.7761V14.625M14.9911 11.8125V9.4725H10.7761V11.8125M14.9911 8.535V6.1875H10.7761V8.535M14.9911 5.25V3.375H10.7761V5.25H14.9911Z" fill="#373737"/>
</g>
<defs>
<clipPath id="clip0_1749_15944">
<rect width="18" height="18" fill="white" transform="translate(0.5)"/>
</clipPath>
</defs>
</svg>
