<svg width="18" height="18" viewBox="0 0 18 18" fill="none" xmlns="http://www.w3.org/2000/svg">
<g id="18/User interface/Edit/White">
<path id="Edit" fill-rule="evenodd" clip-rule="evenodd" d="M10.8369 14.6198L4.68641 6.66612C4.35215 6.23721 4.2333 5.74132 4.34472 5.23641C4.44129 4.7774 4.72356 4.34096 5.14696 4.00987L6.17946 3.18966C7.07826 2.47481 8.19248 2.55005 8.83129 3.37026L9.52211 4.26646C9.61124 4.37858 9.58896 4.54413 9.47754 4.63442C9.47754 4.63442 7.73193 6.03404 7.69479 6.06414C7.57594 6.17701 7.48681 6.3275 7.46452 6.5081C7.42738 6.86177 7.67251 7.19286 8.03649 7.23801C8.20733 7.26058 8.37075 7.20791 8.4896 7.11008L10.3243 5.65027C10.4135 5.5833 10.5472 5.5976 10.6215 5.6879L14.9818 11.3315C15.264 11.6852 15.3606 12.1442 15.264 12.5881L14.7069 15.0036C14.6772 15.1315 14.5658 15.2218 14.4321 15.2218L11.9808 15.1917C11.5351 15.1842 11.1191 14.981 10.8369 14.6198ZM7.40415 13.8673H3.40709C3.01712 13.8673 2.69994 14.1886 2.69994 14.5837C2.69994 14.9795 3.01712 15.3 3.40709 15.3H7.40415C7.79413 15.3 8.11131 14.9795 8.11131 14.5837C8.11131 14.1886 7.79413 13.8673 7.40415 13.8673Z" fill="white"/>
</g>
</svg>
