<svg width="20" height="20" viewBox="0 0 20 20" fill="none" xmlns="http://www.w3.org/2000/svg">
<g id="20/User interface/Electricity/Black">
<path id="Electricity" d="M10.9032 17C10.8029 16.9732 10.7015 16.9504 10.6026 16.9192C9.92162 16.7038 9.45976 16.0779 9.45455 15.3594C9.45099 14.8643 9.454 14.369 9.454 13.8838C9.24088 13.8035 9.0283 13.7456 8.83545 13.6477C7.83091 13.1377 7.30412 12.3103 7.26878 11.178C7.25317 10.6785 7.26604 10.1779 7.26604 9.67785C7.26604 9.6282 7.26604 9.57855 7.26604 9.5118C7.16742 9.5118 7.07785 9.51401 6.98827 9.51153C6.67871 9.5027 6.44258 9.2597 6.44586 8.95492C6.44915 8.65621 6.68392 8.41542 6.98772 8.41239C7.43835 8.4077 7.88926 8.41129 8.35989 8.41129C8.35989 8.35612 8.35989 8.30785 8.35989 8.25959C8.35989 7.77332 8.35906 7.28677 8.36016 6.80051C8.36098 6.45435 8.59109 6.20777 8.90914 6.20887C9.22663 6.20998 9.45291 6.45656 9.45346 6.80519C9.45455 7.28705 9.45373 7.76863 9.45373 8.25048C9.45373 8.29986 9.45373 8.34923 9.45373 8.40439H10.5476V8.25876C10.5476 7.7769 10.547 7.29532 10.5476 6.81347C10.5481 6.45546 10.7747 6.20722 11.0974 6.20887C11.4193 6.21053 11.6409 6.45821 11.6411 6.81954C11.6417 7.34249 11.6411 7.86544 11.6411 8.41101C11.6929 8.41101 11.7406 8.41101 11.788 8.41101C12.18 8.41101 12.572 8.41018 12.9637 8.41101C13.3092 8.41184 13.5541 8.64049 13.5546 8.96017C13.5552 9.28011 13.31 9.5096 12.9656 9.5118C12.8936 9.51235 12.8218 9.5118 12.7347 9.5118C12.7347 9.61744 12.7347 9.71232 12.7347 9.80748C12.7347 10.2389 12.735 10.67 12.7347 11.1013C12.7336 12.4391 11.9208 13.499 10.635 13.8408C10.6087 13.8477 10.5832 13.8579 10.5498 13.8689C10.5498 14.3814 10.5366 14.895 10.5544 15.4071C10.5659 15.7351 10.893 15.9533 11.2245 15.8777C13.0451 15.4626 14.4016 14.4214 15.2541 12.7563C17.0405 9.26743 14.9988 5.01761 11.1782 4.23374C8.35112 3.65369 5.51118 5.19634 4.49103 7.95839C3.65715 10.2165 4.09217 12.2843 5.66815 14.1028C5.71307 14.1547 5.76266 14.2021 5.80923 14.2526C6.03742 14.4983 6.04043 14.8345 5.81635 15.0524C5.59007 15.2725 5.26244 15.2607 5.02302 15.0171C4.37104 14.3541 3.86644 13.5923 3.51607 12.7276C3.24241 12.0518 3.0764 11.3507 3.02243 10.6228C3.01942 10.5825 3.00736 10.5431 2.99942 10.5031C2.99942 10.2093 2.99942 9.91588 2.99942 9.62213C3.01969 9.45443 3.0364 9.28618 3.06051 9.11904C3.3139 7.36538 4.08724 5.88424 5.43119 4.74124C7.3611 3.1004 9.57673 2.60503 11.9995 3.31554C15.4823 4.33662 17.5802 7.83731 16.8575 11.4276C16.3461 13.9693 14.8257 15.7078 12.435 16.6646C12.066 16.8122 11.6696 16.8902 11.2861 17.0003H10.9032V17ZM11.6184 9.52173H8.36016C8.36016 10.0855 8.35578 10.6399 8.36126 11.194C8.36947 12.0391 9.04939 12.7582 9.88464 12.8128C10.7328 12.8685 11.5239 12.2683 11.6064 11.4249C11.6674 10.7993 11.6184 10.163 11.6184 9.52173Z" fill="#373737"/>
</g>
</svg>
