<svg width="14" height="14" viewBox="0 0 14 14" fill="none" xmlns="http://www.w3.org/2000/svg">
<path d="M6.98505 13.9994C3.11702 13.9729 -0.0160387 10.8287 6.1777e-05 6.98961C0.0161622 3.12269 3.19491 -0.0406315 7.02334 -0.000165346C10.9027 0.0411711 14.0318 3.1897 13.9996 7.01833C13.9666 10.8909 10.817 14.0255 6.98505 13.999V13.9994ZM1.07836 6.99788C1.07618 10.2539 3.74842 12.9255 7.00289 12.9212C10.2578 12.9164 12.9065 10.2713 12.9213 7.01006C12.9361 3.76015 10.2704 1.0872 7.00594 1.0785C3.75321 1.0698 1.08097 3.73839 1.07879 6.99831L1.07836 6.99788Z" fill="#373737"/>
<path d="M7.53714 10.2521V11.4652H6.46101V10.2025C5.71648 10.0781 5.02024 9.84787 4.39624 9.39839C4.58074 9.03811 4.76002 8.68871 4.94583 8.32626C5.37228 8.62997 5.82091 8.86058 6.31524 8.99373C6.7543 9.11208 7.19772 9.16038 7.64636 9.05073C7.92224 8.98329 8.12806 8.83839 8.16679 8.53076C8.20509 8.22879 8.06671 8.0047 7.80693 7.8894C7.46403 7.73754 7.10329 7.62615 6.74865 7.50301C6.38747 7.37769 6.0102 7.2898 5.66339 7.13316C4.45498 6.58752 4.29833 4.9445 5.37184 4.1491C5.52893 4.03249 5.70429 3.93459 5.88357 3.85583C6.06242 3.77707 6.25693 3.73356 6.45971 3.6696V2.52175H7.53017V3.66699C8.17332 3.76533 8.73988 4.00638 9.28643 4.36101C9.1041 4.69692 8.92569 5.02543 8.73901 5.36831C8.69332 5.33959 8.65503 5.31696 8.61761 5.29216C8.02015 4.89968 7.37831 4.67168 6.65117 4.76958C6.20297 4.83007 5.94972 5.09766 5.95624 5.49319C5.96103 5.77776 6.12682 5.95572 6.36485 6.05319C6.65683 6.17241 6.96405 6.25552 7.26517 6.35212C7.6407 6.47264 8.02406 6.57229 8.39133 6.71414C9.15545 7.00958 9.51706 7.54652 9.51575 8.33365C9.51444 9.1321 9.11716 9.733 8.37784 10.015C8.1124 10.1163 7.82912 10.1703 7.53714 10.2508V10.2521Z" fill="#373737"/>
</svg>
