<svg width="20" height="20" viewBox="0 0 20 20" fill="none" xmlns="http://www.w3.org/2000/svg">
<path d="M9.22589 2.02273C9.52708 2.02273 9.82828 2.02273 10.1295 2.02273C10.1749 2.0341 10.2147 2.05115 10.2602 2.05683C11.3683 2.18185 12.3117 2.64785 13.1187 3.40936C13.3574 3.63667 13.471 3.90377 13.4767 4.22769C13.4824 4.76188 13.4994 5.30176 13.5165 5.83595C13.5278 6.30763 13.5449 6.77931 13.5619 7.25099C13.5733 7.53513 13.4824 7.7795 13.2835 7.98408C13.2494 8.01818 13.2153 8.06933 13.2153 8.10911C13.2153 8.46144 13.2607 8.81947 13.2266 9.16612C13.2039 9.4048 13.1414 9.68327 12.9993 9.85944C12.7606 10.1549 12.6299 10.4846 12.5049 10.8255C12.4367 11.0074 12.3572 11.1949 12.2549 11.354C12.0162 11.7177 11.7548 12.0644 11.5104 12.4054C11.7548 12.4508 11.8287 12.5361 11.8287 12.8202C11.8287 13.0816 11.8287 13.343 11.8287 13.6101C12.7436 13.792 13.6358 13.9682 14.5451 14.1443C14.5451 13.6442 14.5451 13.1726 14.5451 12.7009C14.5451 12.5702 14.5053 12.4906 14.3973 12.4111C13.9143 12.0473 13.6926 11.5473 13.7608 10.9506C13.829 10.3368 14.1643 9.89353 14.7383 9.64349C15.1588 9.46163 15.4543 9.66053 15.46 10.1152C15.46 10.3652 15.46 10.6096 15.46 10.8653H15.7669C15.7669 10.5982 15.7669 10.3425 15.7669 10.0868C15.7726 9.6719 16.0738 9.46732 16.4602 9.62644C16.9433 9.82534 17.2615 10.1777 17.4149 10.6835C17.4433 10.7801 17.4661 10.8824 17.4945 10.9846V11.2574C17.4831 11.2915 17.4661 11.3313 17.4604 11.3654C17.3922 11.7916 17.1876 12.144 16.841 12.3997C16.7273 12.4849 16.6875 12.5702 16.6932 12.7066C16.6932 14.0079 16.6932 15.3036 16.6932 16.605C16.6932 16.7244 16.6932 16.8437 16.6705 16.9574C16.5795 17.5598 16.2102 17.9064 15.6532 17.9064C11.7605 17.9064 7.87336 17.9064 3.98059 17.9064C3.27591 17.9064 2.83264 17.287 3.05996 16.6221C3.18498 16.2584 3.31 15.889 3.45208 15.531C3.75327 14.7638 4.31019 14.2921 5.11716 14.1273C5.98096 13.9511 6.85044 13.7806 7.73697 13.5988C7.73697 13.3487 7.73697 13.11 7.73697 12.8657C7.73697 12.6838 7.74266 12.5133 7.92451 12.4111C7.28234 11.8371 6.95274 11.1267 6.77088 10.3254C6.74815 10.2231 6.69132 10.1152 6.62881 10.0356C6.42423 9.77988 6.30489 9.49573 6.30489 9.17181C6.30489 8.83083 6.31625 8.48986 6.30489 8.14889C6.30489 8.09206 6.27079 8.02955 6.23101 7.98977C6.00938 7.77382 5.90708 7.51809 5.91845 7.21121C5.92982 6.94411 5.95255 6.67133 5.95823 6.40424C5.96391 6.01212 5.95255 5.62 5.9696 5.22788C5.98664 4.83576 6.02074 4.44364 6.07757 4.05152C6.10599 3.8583 6.17986 3.64804 6.29352 3.50028C6.8334 2.80129 7.56649 2.38075 8.41324 2.15912C8.67465 2.09093 8.94743 2.05115 9.22021 2L9.22589 2.02273ZM12.6129 8.32506C10.7205 7.72835 8.83377 7.68857 6.94137 8.31369C6.94137 8.58647 6.91864 8.88198 6.94705 9.17181C6.9641 9.33661 7.05503 9.49573 7.12322 9.65485C7.20278 9.8367 7.31076 10.0072 7.38464 10.1947C7.52103 10.5471 7.61195 10.9221 7.78244 11.2574C8.52121 12.6895 10.442 12.8032 11.3683 11.57C11.6809 11.1551 11.8968 10.7005 12.0673 10.2175C12.1412 10.0129 12.2833 9.8367 12.3913 9.64917C12.4708 9.5071 12.5845 9.36502 12.5958 9.21727C12.6299 8.91608 12.6072 8.60352 12.6072 8.33074L12.6129 8.32506ZM6.03779 17.287H13.596C13.596 16.4232 13.596 15.5707 13.596 14.7183C13.596 14.6785 13.5449 14.6103 13.5108 14.599C13.3403 14.5535 13.1641 14.5308 12.9709 14.491C12.9709 14.6444 12.9709 14.7808 12.9709 14.9172C12.9652 15.4684 12.5617 15.8776 12.0162 15.8776C10.5557 15.8776 9.09519 15.8776 7.629 15.8776C7.07776 15.8776 6.67996 15.4684 6.67427 14.9172C6.67427 14.7751 6.67427 14.6387 6.67427 14.4796C6.47537 14.5194 6.31057 14.5421 6.14577 14.5876C6.10599 14.599 6.04916 14.6615 6.04916 14.7013C6.04916 15.5594 6.04916 16.4175 6.04916 17.287H6.03779ZM6.67427 4.83008C6.66291 5.03466 6.65154 5.23356 6.64018 5.43815C6.62313 5.69956 6.75952 5.82458 7.02661 5.77344C7.25393 5.72798 7.47556 5.67683 7.6972 5.62568C8.78831 5.387 9.88511 5.27334 10.9933 5.48929C11.482 5.5859 11.9707 5.68251 12.4538 5.7848C12.7322 5.84163 12.8857 5.71661 12.8743 5.43815C12.8629 5.04603 12.8402 4.65391 12.8402 4.25611C12.8402 4.08562 12.7777 3.9606 12.6527 3.84694C11.9025 3.14226 11.0217 2.73309 9.99308 2.67058C8.84514 2.60239 7.81085 2.87516 6.9641 3.70487C6.78793 3.87535 6.66859 4.06289 6.69132 4.3243C6.70269 4.49479 6.67427 4.66527 6.66291 4.83576L6.67427 4.83008ZM6.60608 6.37014C6.58903 6.6827 6.5663 6.97253 6.56062 7.26236C6.55493 7.52945 6.7311 7.67152 6.9982 7.62606C7.15732 7.59765 7.31644 7.55787 7.47556 7.51809C8.66897 7.23962 9.86238 7.10323 11.0785 7.34192C11.5559 7.43284 12.0276 7.53513 12.5049 7.63174C12.7209 7.67721 12.9198 7.55787 12.9255 7.36465C12.9425 7.04641 12.9255 6.72816 12.9255 6.4497C12.6129 6.40992 12.3458 6.40992 12.0958 6.34173C10.6921 5.98371 9.28272 5.8871 7.85632 6.23375C7.45283 6.33036 7.05503 6.50085 6.6004 6.37014H6.60608ZM14.8349 10.3254C14.7724 10.3652 14.744 10.3823 14.7212 10.3993C14.2212 10.8369 14.2837 11.6154 14.8633 11.9735C15.0793 12.1099 15.1816 12.2803 15.1759 12.5361C15.1645 13.0362 15.1872 13.5306 15.1645 14.0307C15.1531 14.2694 15.1986 14.4455 15.4259 14.5535C15.5055 14.5933 15.5737 14.6615 15.6362 14.7297C15.7726 14.8831 15.8976 15.0365 16.051 15.2184C16.051 15.1218 16.051 15.0593 16.051 14.9911C16.051 14.1841 16.0567 13.3771 16.051 12.5702C16.051 12.2917 16.1306 12.0928 16.3806 11.9564C16.5909 11.8428 16.7216 11.6552 16.7955 11.4279C16.9319 11.0074 16.75 10.5016 16.392 10.3425C16.392 10.5641 16.392 10.7801 16.392 10.9903C16.392 11.3313 16.2158 11.5018 15.8692 11.5075C15.7101 11.5075 15.5566 11.5075 15.3975 11.5075C15.0054 11.5075 14.8349 11.337 14.8292 10.9449C14.8292 10.746 14.8292 10.5471 14.8292 10.3141L14.8349 10.3254ZM12.3401 14.366C12.1298 14.3205 11.9366 14.275 11.7434 14.2466C11.6639 14.2353 11.5616 14.258 11.4934 14.3035C10.5159 14.9456 9.06109 14.9513 8.08363 14.3035C8.03249 14.2694 7.96429 14.2239 7.91314 14.2353C7.70856 14.2637 7.50966 14.3148 7.29939 14.3546C7.29939 14.5251 7.29939 14.6728 7.29939 14.8263C7.29939 15.1502 7.40168 15.2525 7.71993 15.2525C8.77694 15.2525 9.82828 15.2525 10.8853 15.2525C11.2433 15.2525 11.607 15.2525 11.965 15.2525C12.2208 15.2525 12.3344 15.1332 12.3344 14.8774C12.3344 14.7126 12.3344 14.5535 12.3344 14.366H12.3401ZM5.40699 14.7354C4.77051 14.8263 4.31588 15.1332 4.07151 15.7185C3.91807 16.0879 3.79305 16.463 3.66234 16.8437C3.57142 17.1108 3.70781 17.2927 3.99763 17.2983C4.34429 17.2983 4.69095 17.2983 5.0376 17.2983C5.15694 17.2983 5.28197 17.2983 5.40699 17.2983V14.7354ZM14.2325 17.2983C14.7383 17.2983 15.227 17.3097 15.7158 17.2983C15.9431 17.2927 16.051 17.0824 15.9715 16.8494C15.8408 16.4743 15.7158 16.0936 15.5623 15.7242C15.3179 15.1388 14.8576 14.8376 14.2325 14.7467V17.304V17.2983ZM11.1979 12.5986C10.2715 13.1726 9.33387 13.1669 8.36778 12.7463C8.36778 13.0532 8.36209 13.3374 8.36778 13.6158C8.36778 13.6783 8.41892 13.7636 8.47575 13.7977C9.14633 14.2637 10.4307 14.2637 11.0899 13.7977C11.141 13.7579 11.1865 13.6727 11.1865 13.6101C11.1979 13.2805 11.1865 12.9566 11.1865 12.5986H11.1979Z" fill="#373737"/>
<path d="M9.73172 5.17107C9.54987 5.17107 9.36233 5.17107 9.18048 5.17107C8.73722 5.15971 8.39624 4.80737 8.40193 4.37547C8.40193 3.94925 8.7429 3.60828 9.18048 3.59691C9.55555 3.59123 9.92494 3.59123 10.3 3.59691C10.7433 3.6026 11.0842 3.95494 11.0786 4.39252C11.0786 4.81873 10.7376 5.15971 10.3 5.17107C10.1125 5.17107 9.91926 5.17107 9.73172 5.17107ZM9.72036 4.54027C9.89653 4.54027 10.0727 4.55732 10.2489 4.53459C10.3227 4.52322 10.3796 4.4323 10.4478 4.37547C10.3853 4.32432 10.3171 4.23908 10.2545 4.2334C9.91357 4.21635 9.57828 4.21635 9.23731 4.2334C9.16912 4.2334 9.1066 4.33569 9.03841 4.39252C9.10092 4.44366 9.16343 4.52322 9.23163 4.53459C9.39075 4.55732 9.55555 4.54027 9.72036 4.54027Z" fill="#373737"/>
</svg>
