<svg width="12" height="12" viewBox="0 0 12 12" fill="none" xmlns="http://www.w3.org/2000/svg">
<path d="M1.2793 2.49021C1.2793 2.49021 1.2793 2.4525 1.2793 2.41479C1.39242 2.15083 1.58096 2 1.84492 2C1.88263 2 1.88263 2 1.92034 2C4.59763 2 7.23722 2 9.91451 2C9.98993 2 10.1031 2 10.1785 2C10.4424 2.07542 10.5933 2.33938 10.5556 2.60333C10.5178 2.905 10.2916 3.09354 9.98993 3.13125C9.95222 3.13125 9.91451 3.13125 9.87681 3.13125C7.23722 3.13125 4.59763 3.13125 1.99576 3.13125C1.58096 3.16896 1.43013 3.05583 1.2793 2.67875C1.2793 2.60333 1.2793 2.52792 1.2793 2.49021Z" fill="#373737"/>
<path d="M4.89903 10.1449C4.89903 10.1449 4.78591 10.1072 4.71049 10.0695C4.48424 9.95635 4.33341 9.69239 4.40882 9.42843C4.44653 9.16447 4.67278 8.97593 4.93674 8.97593C5.57778 8.97593 6.25653 8.97593 6.89758 8.97593C7.19924 8.97593 7.42549 9.20218 7.4632 9.50385C7.4632 9.80551 7.31237 10.0695 7.0107 10.1449C7.0107 10.1449 7.0107 10.1449 6.97299 10.1449H4.89903Z" fill="#373737"/>
<path d="M5.91781 5.46935C6.7474 5.46935 7.57698 5.46935 8.40657 5.46935C8.67053 5.46935 8.89678 5.62018 8.97219 5.84643C9.08532 6.22352 8.85907 6.56289 8.44427 6.6006C8.44427 6.6006 8.40657 6.6006 8.36886 6.6006C6.70969 6.6006 5.08823 6.6006 3.42906 6.6006C3.12739 6.6006 2.90114 6.44977 2.82573 6.22352C2.67489 5.84643 2.97656 5.46935 3.39135 5.43164C4.0701 5.43164 4.74885 5.43164 5.4276 5.43164C5.57844 5.43164 5.72927 5.43164 5.88011 5.43164L5.91781 5.46935Z" fill="#373737"/>
</svg>
