<svg width="12" height="12" viewBox="0 0 12 12" fill="none" xmlns="http://www.w3.org/2000/svg">
<path fill-rule="evenodd" clip-rule="evenodd" d="M2.18769 2.22086C2.19519 2.22029 2.20271 2.22 2.21023 2.22H9.77999C9.89138 2.22 9.99821 2.26391 10.077 2.34207C10.1557 2.42023 10.2 2.52623 10.2 2.63677V3.05839L10.2 3.06008C10.1991 3.21463 10.1398 3.36324 10.0339 3.47658C10.0314 3.47926 10.0289 3.4819 10.0263 3.48449L7.18185 6.30702V9.48923C7.18185 9.58992 7.12936 9.68344 7.04309 9.73645C6.95681 9.78945 6.84905 9.7944 6.75822 9.74952L4.98787 8.87479C4.88836 8.82562 4.82546 8.72481 4.82546 8.6145V6.31186L1.98116 3.48944C1.92327 3.43203 1.87735 3.36368 1.84627 3.28855C1.81532 3.21373 1.79959 3.13358 1.8 3.05271C1.8 3.05232 1.8 3.05194 1.8 3.05156L2.09302 3.05354H1.8V3.05271V2.63708C1.8 2.63726 1.8 2.63745 1.8 2.63763L2.09302 2.63677L1.8 2.63708M2.38604 2.80154V3.05552C2.38601 3.0597 2.38681 3.06384 2.38841 3.0677C2.39001 3.07156 2.39237 3.07507 2.39534 3.07802L5.32568 5.98582C5.38063 6.04035 5.4115 6.11431 5.4115 6.19142V8.43446L6.5958 9.01963V6.18658C6.5958 6.10946 6.62668 6.0355 6.68163 5.98097L9.60598 3.07911C9.611 3.07286 9.61381 3.06512 9.61394 3.05709V2.80154H2.38604Z" fill="#373737"/>
</svg>
