<svg width="15" height="13" viewBox="0 0 15 13" fill="none" xmlns="http://www.w3.org/2000/svg">
<path d="M0.418945 0.735313C0.418945 0.735313 0.418945 0.678751 0.418945 0.622188C0.588633 0.22625 0.871446 0 1.26738 0C1.32395 0 1.32395 0 1.38051 0C5.39645 0 9.35583 0 13.3718 0C13.4849 0 13.6546 0 13.7677 0C14.1636 0.113125 14.3899 0.509063 14.3333 0.905001C14.2768 1.3575 13.9374 1.64031 13.4849 1.69688C13.4283 1.69688 13.3718 1.69688 13.3152 1.69688C9.35583 1.69688 5.39645 1.69688 1.49363 1.69688C0.871446 1.75344 0.645196 1.58375 0.418945 1.01813C0.418945 0.905001 0.418945 0.791876 0.418945 0.735313Z" fill="white"/>
<path d="M5.84854 12.2173C5.84854 12.2173 5.67885 12.1608 5.56573 12.1042C5.22635 11.9345 5.0001 11.5386 5.11323 11.1426C5.16979 10.7467 5.50917 10.4639 5.9051 10.4639C6.86667 10.4639 7.88479 10.4639 8.84636 10.4639C9.29886 10.4639 9.63823 10.8033 9.6948 11.2558C9.6948 11.7083 9.46855 12.1042 9.01605 12.2173C9.01605 12.2173 9.01605 12.2173 8.95948 12.2173H5.84854Z" fill="white"/>
<path d="M7.37672 5.20402C8.62109 5.20402 9.86547 5.20402 11.1098 5.20402C11.5058 5.20402 11.8452 5.43027 11.9583 5.76965C12.128 6.33527 11.7886 6.84434 11.1664 6.9009C11.1664 6.9009 11.1098 6.9009 11.0533 6.9009C8.56453 6.9009 6.13234 6.9009 3.64359 6.9009C3.19109 6.9009 2.85171 6.67465 2.73859 6.33527C2.51234 5.76965 2.96484 5.20402 3.58702 5.14746C4.60515 5.14746 5.62328 5.14746 6.6414 5.14746C6.86765 5.14746 7.0939 5.14746 7.32015 5.14746L7.37672 5.20402Z" fill="white"/>
</svg>
