<svg width="25" height="22" viewBox="0 0 25 22" fill="none" xmlns="http://www.w3.org/2000/svg">
<g id="Folder">
<path id="Page 1" fill-rule="evenodd" clip-rule="evenodd" d="M21.1958 7.2826H20.1367V5.27591C20.1367 4.72257 19.6617 4.27257 19.0776 4.27257H12.1935C12.0696 4.27257 11.9499 4.23143 11.8546 4.15668L8.82457 1.76421H2.66175C2.07766 1.76421 1.60266 2.21421 1.60266 2.76755V6.27926H21.1958V7.2826H1.60266H0.543579V2.76755C0.543579 1.66086 1.49358 0.760864 2.66175 0.760864H9.01627C9.14018 0.760864 9.25986 0.802001 9.35517 0.876751L12.3852 3.26923H19.0776C20.2458 3.26923 21.1958 4.16923 21.1958 5.27591V7.2826Z" fill="#373737"/>
<path id="Union" fill-rule="evenodd" clip-rule="evenodd" d="M2.71739 6.1956C1.21662 6.1956 0 7.41222 0 8.91299V18.6956C0 20.1964 1.21662 21.413 2.71739 21.413H22.2826C23.7834 21.413 25 20.1964 25 18.6956V8.91299C25 7.41222 23.7834 6.1956 22.2826 6.1956H2.71739Z" fill="#373737"/>
</g>
</svg>
