<svg width="100" height="100" viewBox="0 0 100 100" fill="none" xmlns="http://www.w3.org/2000/svg">
<g id="Icono_informativo" clip-path="url(#clip0_1489_8099)">
<path id="Vector" d="M53.1306 99.9999H46.8792C46.6287 99.9451 46.3822 99.857 46.1298 99.8394C40.8018 99.4421 35.6363 98.3011 30.7545 96.1305C14.2913 88.8107 4.242 76.318 0.765047 58.6075C0.408938 56.7972 0.25045 54.9476 0 53.1157C0 51.0313 0 48.9489 0 46.8645C0.0586992 46.5494 0.125225 46.2343 0.174141 45.9192C0.545903 43.5118 0.747437 41.0654 1.30508 38.7031C7.63286 11.8897 33.7071 -4.58774 60.6754 1.13113C82.7542 5.81465 99.2584 25.4647 99.9687 48.0114C100.387 61.2693 96.3 73.0026 87.5479 82.9881C79.8388 91.7817 70.1495 97.1933 58.619 99.2405C56.8013 99.5634 54.9601 99.7494 53.1306 99.9999ZM50.047 7.79532C26.7747 7.75813 7.89309 26.5823 7.81482 49.8961C7.73656 73.1885 26.6299 92.1457 49.9609 92.1849C73.2312 92.224 92.1128 73.4018 92.195 50.0821C92.2791 26.7858 73.3858 7.8325 50.047 7.79532Z" fill="#E50000"/>
<path id="Vector_2" d="M54.5138 40.4706C54.5138 45.1639 54.5196 49.8572 54.5138 54.5524C54.5098 57.4491 52.5865 59.5315 49.9685 59.5021C47.3818 59.4728 45.5015 57.4197 45.4995 54.5896C45.4936 45.1639 45.4936 35.7401 45.4995 26.3143C45.4995 23.4549 47.3564 21.4585 49.9861 21.4507C52.6237 21.4429 54.5059 23.4372 54.5118 26.2771C54.5216 31.0076 54.5138 35.7401 54.5138 40.4706Z" fill="#E50000"/>
<path id="Vector_3" d="M49.9548 77.1675C46.5972 77.1518 43.899 74.4157 43.9205 71.0494C43.9421 67.7124 46.7185 64.9762 50.0526 65.0056C53.3926 65.035 56.1104 67.8024 56.0869 71.1472C56.0634 74.5077 53.3379 77.1851 49.9529 77.1675H49.9548Z" fill="#E50000"/>
</g>
<defs>
<clipPath id="clip0_1489_8099">
<rect width="100" height="100" fill="white"/>
</clipPath>
</defs>
</svg>
