<svg width="15" height="13" viewBox="0 0 15 13" fill="none" xmlns="http://www.w3.org/2000/svg">
<g id="Vector">
<path id="Vector_2" d="M4 12.9872C4 9.03803 4 5.08888 4 1.13973C4 0.537096 4.36759 0.0626849 4.90119 0.0113973C5.13834 -0.0142466 5.37549 0.0113973 5.61265 0.0113973C5.80237 0.0113973 5.99209 0.0113973 6.18182 0.0370411C6.64427 0.113973 6.98814 0.56274 7 1.06279C7 1.11408 7 1.16537 7 1.21666C7 5.14016 7 9.07649 7 13H4V12.9872Z" fill="#373737"/>
<path id="Vector_3" d="M12 12.9901C12 9.95233 12 6.91452 12 3.87671C12 3.41315 12.3676 3.04822 12.9012 3.00877C13.1383 2.98904 13.3755 3.00877 13.6126 3.00877C13.8024 3.00877 13.9921 3.00877 14.1818 3.02849C14.6443 3.08767 14.9881 3.43288 15 3.81753C15 3.85699 15 3.89644 15 3.93589C15 6.95397 15 9.98192 15 13H12V12.9901Z" fill="#373737"/>
<path id="Vector_4" d="M0 3.93421C0 3.93421 0.0355731 3.84211 0.0474308 3.78947C0.166008 3.32895 0.545455 3.01316 0.972332 3C1.31621 3 1.64822 3 1.99209 3C2.56126 3 3 3.48684 3 4.13158C3 5.25 3 6.36842 3 7.48684C3 9.32895 3 11.1579 3 13H0C0 9.97368 0 6.94737 0 3.93421Z" fill="#373737"/>
<path id="Vector_5" d="M8 13C8 11.3636 8 9.71541 8 8.07905C8 7.41502 8.41502 7 9.07905 7C9.36364 7 9.63636 7 9.92095 7C10.5731 7 11 7.42688 11 8.06719C11 9.71541 11 11.3636 11 13H8Z" fill="#373737"/>
</g>
</svg>
