<svg width="13" height="14" viewBox="0 0 13 14" fill="none" xmlns="http://www.w3.org/2000/svg">
<path d="M10.8834 0C11.1442 0.0291426 11.4046 0.0594394 11.6657 0.0865622C11.8585 0.10676 12.0526 0.119744 12.2451 0.141962C12.4591 0.166488 12.5788 0.307873 12.5247 0.506389C12.3871 1.01047 12.2375 1.51167 12.084 2.01142C12.0343 2.17358 11.8715 2.24398 11.713 2.19608C11.5631 2.15078 11.4776 1.99641 11.5211 1.83137C11.5707 1.64353 11.6292 1.45771 11.6919 1.2439C11.6404 1.27852 11.6093 1.29641 11.5816 1.31863C10.3743 2.28582 9.16752 3.2533 7.96048 4.22049C7.71295 4.41871 7.66856 4.42304 7.38782 4.2756C6.19489 3.64946 5.00166 3.02448 3.81107 2.39431C3.70642 2.33891 3.64233 2.34613 3.55003 2.41913C2.56552 3.19819 1.57689 3.97205 0.589442 4.74707C0.546816 4.78054 0.504778 4.81575 0.45833 4.84402C0.323104 4.92597 0.166123 4.90087 0.0688184 4.78487C-0.0302499 4.66657 -0.0234886 4.49662 0.0964517 4.38813C0.198754 4.29551 0.311639 4.21443 0.420408 4.12902C1.40786 3.35371 2.39678 2.58013 3.38129 1.80107C3.53797 1.677 3.6782 1.65998 3.85723 1.75491C5.06545 2.39431 6.27749 3.02622 7.48571 3.66533C7.58949 3.72016 7.6521 3.71467 7.74382 3.64052C8.94793 2.66958 10.1559 1.70354 11.3629 0.736356C11.3849 0.718467 11.4052 0.698269 11.4484 0.658739C11.2033 0.634501 10.984 0.611706 10.7644 0.591509C10.5457 0.571311 10.4413 0.506101 10.4078 0.36385C10.3728 0.214963 10.4325 0.109934 10.6147 0C10.7044 0 10.7941 0 10.8834 0Z" fill="#373737"/>
<path d="M13.0003 7.60049C13.0003 6.42093 13.0003 5.24138 13 4.06153C13 3.77097 12.8741 3.6469 12.5796 3.64661C11.9043 3.64661 11.2294 3.64632 10.5541 3.64661C10.2587 3.64661 10.1326 3.77097 10.1326 4.0624C10.1326 7.23664 10.1326 10.4109 10.1326 13.5851C10.1326 13.8757 10.259 13.9997 10.5553 13.9997C10.8519 13.9997 11.1485 13.9997 11.4452 13.9997C11.6847 13.9997 11.924 13.9997 12.1636 13.9997H12.542C12.8891 13.9997 13.0006 13.8895 13.0006 13.5459C13.0006 12.2339 13.0006 10.9219 13.0006 9.60989V8.82275V7.6002L13.0003 7.60049ZM10.8346 13.3113V4.33247H12.2994V13.3113H10.8346Z" fill="#373737"/>
<path d="M6.31417 5.49096C6.31417 5.19405 6.18952 5.07286 5.88409 5.07258C5.21766 5.072 4.55122 5.072 3.88479 5.07258C3.57465 5.07258 3.44824 5.19636 3.44824 5.49933C3.44824 6.49451 3.44824 7.48939 3.44824 8.48428V9.53774V10.625C3.44824 11.6086 3.44824 12.5925 3.44824 13.5762C3.44824 13.8765 3.57171 13.9992 3.87421 13.9995C4.20963 13.9995 4.54505 13.9995 4.88018 13.9995C5.2153 13.9995 5.55073 13.9995 5.88615 13.9995C6.19393 13.9995 6.31387 13.8817 6.31417 13.5805C6.31417 10.8838 6.31417 8.18709 6.31417 5.49067V5.49096ZM5.61158 5.76219V13.3156H4.14966V5.76219H5.61158Z" fill="#373737"/>
<path d="M9.65943 6.77811C9.65943 6.47774 9.53597 6.35511 9.23347 6.35511C8.67933 6.35482 8.1249 6.35511 7.57077 6.35511H7.2474C6.90345 6.35511 6.79321 6.46302 6.79321 6.7986C6.79321 7.61776 6.79321 8.43722 6.79321 9.25639V10.178V11.088C6.79321 11.9153 6.79321 12.7428 6.79321 13.5704C6.79321 13.8875 6.90904 14 7.23593 14C7.56695 14 7.89796 14 8.22897 14C8.55998 14 8.89099 14 9.222 14C9.53685 14 9.65943 13.8808 9.65943 13.5753C9.65943 11.3096 9.65943 9.04373 9.65943 6.77811ZM7.49463 13.3156V7.04241H8.95861V13.3156H7.49463Z" fill="#373737"/>
<path d="M2.55434 7.72422C1.97992 7.72393 1.40521 7.72393 0.830786 7.72422H0.555041C0.224911 7.72422 0.10791 7.83963 0.10791 8.16453C0.10791 8.80971 0.10791 9.45459 0.10791 10.0998V10.8488V11.5872C0.10791 12.2526 0.10791 12.9182 0.108204 13.5836C0.108204 13.875 0.23373 13.9997 0.527113 13.9997C0.864592 13.9997 1.20207 13.9997 1.53984 13.9997C1.87762 13.9997 2.2148 13.9997 2.55258 13.9997C2.84537 13.9997 2.97619 13.8719 2.97619 13.5859C2.97648 11.771 2.97648 9.95637 2.97619 8.14145C2.97619 7.85319 2.84625 7.7245 2.55493 7.72422H2.55434ZM0.809914 13.3118V8.41065H2.27654V13.3118H0.809914Z" fill="#373737"/>
</svg>
