<svg width="26" height="26" viewBox="0 0 26 26" fill="none" xmlns="http://www.w3.org/2000/svg">
<circle cx="13" cy="13" r="12.5" fill="white" stroke="#373737"/>
<path d="M12.8688 19C12.6414 18.9585 12.4096 18.9359 12.191 18.8719C11.2813 18.608 10.844 17.9673 10.9402 17.1155C11.0146 16.4484 11.2595 15.819 11.4606 15.1782C11.6443 14.5903 11.8324 14.0023 12.0029 13.4143C12.086 13.1354 12.1122 12.849 12.051 12.5625C11.9985 12.3251 11.8411 12.1781 11.5656 12.1253C11.1764 12.0499 10.7959 12.0839 10.4198 12.1856C10.2886 12.2233 10.1531 12.261 10 12.3025C10.0656 12.0763 10.1224 11.8653 10.188 11.6617C10.1968 11.6353 10.2362 11.6052 10.2668 11.5939C10.8921 11.3866 11.5087 11.1604 12.1691 11.0587C12.8207 10.9569 13.4679 10.972 14.0802 11.2283C14.7187 11.4997 15.0554 12.0801 15.0292 12.6907C14.9898 13.5161 14.6574 14.2812 14.4213 15.0651C14.2682 15.5815 14.102 16.0979 13.9577 16.6142C13.8878 16.8705 13.8484 17.1343 13.9096 17.3982C13.9796 17.7035 14.1458 17.8316 14.5 17.8844C14.9679 17.956 15.414 17.8731 15.8513 17.7411C15.895 17.7298 15.9344 17.7148 16 17.6959C15.9344 17.9221 15.8776 18.1331 15.8163 18.3442C15.8076 18.3668 15.7726 18.3932 15.742 18.4007C15.2478 18.559 14.758 18.7249 14.2551 18.8681C14.0233 18.9322 13.7741 18.951 13.5335 18.9925H12.8776L12.8688 19Z" fill="#373737"/>
<path d="M14.5802 9.996C13.8682 9.96399 13.3811 9.67594 13.115 9.05582C12.8115 8.34768 13.13 7.52752 13.8195 7.16745C14.449 6.83938 15.2172 7.00342 15.6744 7.57153C16.3002 8.34368 15.9854 9.53191 15.0598 9.88798C14.8837 9.95599 14.6889 9.976 14.5802 10V9.996Z" fill="#373737"/>
</svg>
