<svg width="80" height="80" viewBox="0 0 80 80" fill="none" xmlns="http://www.w3.org/2000/svg">
<path d="M40.5389 80H39.2905C38.1892 79.6558 37.4774 78.8846 36.8517 77.9444C34.5583 74.5044 32.229 71.0878 29.8902 67.6791C29.6728 67.363 29.3208 67.0502 28.9657 66.9297C22.8381 64.8319 17.7226 61.2792 13.5317 56.3499C4.13296 45.2992 2.93466 28.6231 10.6751 16.3616C19.3887 2.55918 35.7066 -3.43077 51.0952 1.97255C63.4506 6.31053 70.9236 15.2259 73.6409 28.0646C73.9303 29.4287 74.0523 30.8288 74.251 32.2117V36.5841C74.1884 37.0691 74.1305 37.5556 74.0617 38.0406C72.0452 52.2294 64.311 61.8283 50.9341 66.9125C50.5555 67.0564 50.166 67.3537 49.9376 67.6853C47.5957 71.0909 45.2695 74.5075 42.9777 77.946C42.352 78.8862 41.6355 79.6527 40.5373 79.9984L40.5389 80ZM39.9257 71.2943C41.8311 68.4863 43.6723 65.8081 45.4698 63.1001C46.0767 62.185 46.8542 61.6156 47.9071 61.2964C61.7126 57.1071 70.0069 43.6629 67.5633 29.4772C64.81 13.4972 48.7362 3.10671 33.0143 7.14434C17.0609 11.243 7.95784 27.988 13.3815 43.5315C16.4993 52.4672 22.7614 58.3335 31.7597 61.2401C32.911 61.6124 33.7777 62.2006 34.4426 63.2143C35.9819 65.564 37.5807 67.8746 39.156 70.1992C39.3859 70.5371 39.6253 70.8688 39.9257 71.2959V71.2943Z" fill="#E50000"/>
<rect x="36.7173" y="27.8456" width="6.25746" height="26.5942" rx="3.12873" fill="#E50000"/>
<circle cx="39.846" cy="21.5881" r="3.12873" fill="#E50000"/>
</svg>
