<svg width="14" height="14" viewBox="0 0 14 14" fill="none" xmlns="http://www.w3.org/2000/svg">
<path d="M14.0003 12.5493C13.9771 12.6422 13.9578 12.735 13.9307 12.8279C13.7141 13.5551 12.9793 14.0387 12.2174 13.9652C11.7379 13.9188 11.3279 13.7292 10.9876 13.3849C10.044 12.441 9.09258 11.5048 8.1412 10.5687C7.69258 10.1238 7.52241 9.59769 7.62296 8.97486C7.6307 8.92457 7.60363 8.84721 7.56882 8.81239C6.21523 7.45455 4.85777 6.09672 3.50031 4.74275C3.45777 4.7002 3.38042 4.67699 3.32241 4.67699C2.95114 4.66538 2.576 4.68086 2.20473 4.65765C1.81025 4.63057 1.50086 4.42941 1.30362 4.09285C0.90141 3.41586 0.510801 2.73501 0.124061 2.04642C-0.0847792 1.68279 -0.0229007 1.26499 0.263287 0.967119C0.491464 0.727274 0.719642 0.48356 0.971023 0.266925C1.11025 0.147002 1.29202 0.0851065 1.45445 0C1.555 0 1.65555 0 1.75611 0C1.85279 0.0386848 1.95721 0.0618956 2.04616 0.112186C2.73456 0.502902 3.42296 0.893618 4.10362 1.29981C4.42848 1.49323 4.62186 1.79884 4.65666 2.18182C4.67987 2.42167 4.69534 2.66538 4.66826 2.90523C4.62572 3.28047 4.76108 3.53966 5.0318 3.80271C6.29644 5.03676 7.53788 6.29401 8.79092 7.54353C8.83346 7.58608 8.91854 7.62864 8.97269 7.61703C9.58761 7.51645 10.1136 7.68279 10.5583 8.1238C11.5252 9.08318 12.4959 10.0387 13.4589 10.9981C13.5324 11.0716 13.5942 11.1567 13.6523 11.2457C13.8379 11.5165 13.9307 11.8259 14.0003 12.1393V12.5493Z" fill="#373737"/>
<path d="M14 3.66348V4.51068C13.9923 4.54163 13.9807 4.57258 13.9768 4.60352C13.8183 5.74472 13.2652 6.64995 12.3564 7.35014C12.1978 7.47393 12.0277 7.51649 11.8343 7.49714C11.6254 7.4778 11.4591 7.37335 11.3083 7.23022C10.7746 6.72345 10.1404 6.45652 9.40555 6.42171C9.35141 6.42171 9.28179 6.38689 9.24312 6.34821C8.27627 5.38496 7.30942 4.41784 6.34257 3.45072C6.07571 3.18379 6.0177 2.86658 6.16466 2.52228C6.70223 1.29598 7.61108 0.491334 8.90666 0.139303C9.13483 0.0774073 9.37075 0.050328 9.60279 0.00390625C9.82323 0.00390625 10.0398 0.00390625 10.2602 0.00390625C10.3763 0.0232486 10.4923 0.042591 10.6083 0.0619334C10.9061 0.112224 11.0956 0.344332 11.0879 0.646073C11.084 0.820155 11.0028 0.955551 10.879 1.07547C10.5078 1.44298 10.1326 1.81048 9.76909 2.18573C9.01881 2.96329 9.32047 4.2631 10.3299 4.57644C10.8713 4.74279 11.3586 4.58805 11.7879 4.25149C12.0083 4.07741 12.2017 3.86851 12.4028 3.67122C12.6 3.48167 12.7895 3.28437 12.9829 3.09482C13.1492 2.93234 13.3542 2.88205 13.5746 2.95555C13.7951 3.02905 13.9188 3.18379 13.9536 3.41203C13.9652 3.49714 13.9846 3.57838 14 3.66348Z" fill="#373737"/>
<path d="M1.72114 14C1.04048 13.9845 0.514511 13.6905 0.208985 13.0793C-0.112009 12.441 -0.0114567 11.8143 0.386886 11.234C0.4565 11.1334 0.541583 11.0444 0.626665 10.9555C1.63993 9.93806 2.65319 8.92452 3.66645 7.91097C4.088 7.48931 4.60623 7.48931 5.02778 7.91097C5.39131 8.27461 5.75485 8.63825 6.11838 9.00188C6.50899 9.3926 6.51286 9.92645 6.12612 10.3133C5.06645 11.3771 4.00291 12.441 2.93937 13.5009C2.59904 13.8375 2.20457 13.9922 1.72114 13.9961V14Z" fill="#373737"/>
</svg>
