<svg width="18" height="10" viewBox="0 0 18 10" fill="none" xmlns="http://www.w3.org/2000/svg">
<path d="M13.4765 4.75133C13.313 4.62553 13.1486 4.4913 12.9764 4.36756C11.9491 3.62947 10.8033 3.21047 9.54231 3.10661C9.47416 3.10098 9.45275 3.08148 9.45313 3.01249C9.45538 2.33777 9.45444 1.66304 9.45463 0.988321C9.45463 0.964324 9.45933 0.94014 9.46308 0.902832C11.5898 1.03275 13.4399 1.80346 15.0261 3.20297C14.5057 3.72284 13.9938 4.23446 13.4767 4.75133H13.4765Z" fill="#373737"/>
<path d="M8.54125 0.914062C8.54294 0.95137 8.54556 0.982116 8.54556 1.01267C8.54575 1.66865 8.54425 2.32463 8.54744 2.9806C8.54782 3.06759 8.53242 3.10171 8.43367 3.11015C6.99429 3.23388 5.72105 3.76294 4.61189 4.68663C4.58317 4.71044 4.55463 4.73462 4.53041 4.75468C4.01526 4.23669 3.50311 3.72169 2.98364 3.1992C3.63228 2.61296 4.36877 2.1259 5.17586 1.7442C6.42131 1.15497 7.72102 0.928686 8.54125 0.914062Z" fill="#373737"/>
<path d="M3.8515 5.43239C2.87413 6.56924 2.31787 7.90069 2.19978 9.4198H0.000244141C0.129971 7.30039 0.9027 5.45582 2.29928 3.87634C2.81669 4.39509 3.3294 4.90914 3.85131 5.43239H3.8515Z" fill="#373737"/>
<path d="M18.0003 9.42128H15.8013C15.6842 7.90723 15.1294 6.57203 14.1453 5.42843C14.6627 4.9125 15.1773 4.39938 15.701 3.87708C17.0952 5.45018 17.8696 7.29625 18.0001 9.42128H18.0003Z" fill="#373737"/>
<path d="M9.10715 9.42903C8.82329 9.41591 8.60044 9.29443 8.46358 9.04321C8.32334 8.78599 8.32465 8.5179 8.4955 8.28037C8.73974 7.94085 9.0007 7.61277 9.26447 7.2875C9.94333 6.45005 10.6276 5.6171 11.3101 4.78227C11.3318 4.75565 11.3497 4.71871 11.378 4.70653C11.4159 4.69003 11.4706 4.67672 11.5021 4.69284C11.5271 4.70578 11.5462 4.77046 11.5367 4.8027C11.5074 4.90094 11.4638 4.99524 11.4242 5.09029C10.9115 6.32463 10.3988 7.55897 9.88532 8.79312C9.85303 8.87092 9.81717 8.9476 9.77756 9.02184C9.63488 9.28824 9.40903 9.41985 9.10752 9.42885L9.10715 9.42903Z" fill="#373737"/>
</svg>
