<?xml version="1.0" encoding="utf-8"?>
<!-- Generator: Adobe Illustrator 28.3.0, SVG Export Plug-In . SVG Version: 6.00 Build 0)  -->
<svg version="1.1" id="Capa_1" xmlns="http://www.w3.org/2000/svg" xmlns:xlink="http://www.w3.org/1999/xlink" x="0px" y="0px"
	 viewBox="0 0 20 20" style="enable-background:new 0 0 20 20;" xml:space="preserve">
<style type="text/css">
	.st0{fill-rule:evenodd;clip-rule:evenodd;}
</style>
<path class="st0" d="M10,6.1c-0.3,0-0.6-0.3-0.6-0.6V3.6C9.4,3.3,9.7,3,10,3c0.3,0,0.6,0.3,0.6,0.6v1.9C10.6,5.8,10.3,6.1,10,6.1z"
	/>
<path class="st0" d="M10,17c-0.3,0-0.6-0.3-0.6-0.6v-1.9c0-0.3,0.3-0.6,0.6-0.6c0.3,0,0.6,0.3,0.6,0.6v1.9C10.6,16.7,10.3,17,10,17z
	"/>
<path class="st0" d="M13.9,10c0-0.3,0.3-0.6,0.6-0.6h1.9c0.3,0,0.6,0.3,0.6,0.6s-0.3,0.6-0.6,0.6h-1.9C14.2,10.6,13.9,10.3,13.9,10z
	"/>
<path class="st0" d="M3,10c0-0.3,0.3-0.6,0.6-0.6h1.9c0.3,0,0.6,0.3,0.6,0.6s-0.3,0.6-0.6,0.6H3.6C3.3,10.6,3,10.3,3,10z"/>
<path class="st0" d="M12.8,7.2c-0.2-0.2-0.2-0.6,0-0.8l1.4-1.4c0.2-0.2,0.6-0.2,0.8,0c0.2,0.2,0.2,0.6,0,0.8l-1.4,1.4
	C13.4,7.5,13,7.5,12.8,7.2z"/>
<path class="st0" d="M5.1,14.9c-0.2-0.2-0.2-0.6,0-0.8l1.4-1.4c0.2-0.2,0.6-0.2,0.8,0c0.2,0.2,0.2,0.6,0,0.8l-1.4,1.4
	C5.6,15.2,5.3,15.2,5.1,14.9z"/>
<path class="st0" d="M7.2,7.2C7,7.5,6.6,7.5,6.4,7.2L5.1,5.9c-0.2-0.2-0.2-0.6,0-0.8c0.2-0.2,0.6-0.2,0.8,0l1.4,1.4
	C7.5,6.6,7.5,7,7.2,7.2z"/>
<path class="st0" d="M14.9,14.9c-0.2,0.2-0.6,0.2-0.8,0l-1.4-1.4c-0.2-0.2-0.2-0.6,0-0.8c0.2-0.2,0.6-0.2,0.8,0l1.4,1.4
	C15.2,14.4,15.2,14.7,14.9,14.9z"/>
</svg>
