<svg width="14" height="14" viewBox="0 0 14 14" fill="none" xmlns="http://www.w3.org/2000/svg">
<g id="Mechanics">
<path id="Vector" d="M13.9998 3.03191C13.9746 3.15697 13.9521 3.28259 13.9236 3.40683C13.5787 4.92198 12.0544 5.85764 10.5646 5.4667C10.4753 5.44323 10.4172 5.45704 10.3495 5.52495C9.87164 6.00424 9.38857 6.47828 8.86632 6.99455C8.9455 7.04867 9.00469 7.07683 9.04826 7.12073C9.45543 7.52878 9.8615 7.93794 10.2635 8.35124C10.3336 8.4233 10.3931 8.43572 10.4901 8.41115C12.3338 7.94815 14.1069 9.45862 13.968 11.37C13.8655 12.7785 12.7007 13.9403 11.3329 13.9977C9.8489 14.0601 8.60081 13.0499 8.37283 11.5994C8.31365 11.2231 8.33694 10.8495 8.42216 10.4785C8.43229 10.434 8.4249 10.3639 8.3964 10.3346C7.93991 9.86584 7.47876 9.40202 7.01843 8.93737C7.0124 8.93129 7.00226 8.92991 6.98637 8.92273C6.96582 8.94096 6.94143 8.96 6.91979 8.98182C6.45042 9.45696 5.98269 9.93376 5.51058 10.4064C5.44729 10.4696 5.43413 10.5262 5.45249 10.6124C5.81966 12.3437 4.47676 13.9803 2.71792 13.9516C2.34857 13.9455 1.99483 13.8718 1.6567 13.7233C1.46928 13.6408 1.28378 13.5538 1.08157 13.4616C1.12157 13.4188 1.15363 13.3826 1.18761 13.3484C1.60629 12.926 2.02469 12.5033 2.44474 12.0823C2.55873 11.968 2.62394 11.8382 2.58503 11.6739C2.51297 11.3716 2.15731 11.2642 1.92715 11.4809C1.71096 11.6847 1.506 11.9006 1.29666 12.1118C1.04239 12.368 0.788657 12.625 0.518762 12.8975C0.349975 12.543 0.16694 12.2131 0.0784366 11.8407C-0.310376 10.2035 0.783451 8.61186 2.44145 8.4117C2.77327 8.37167 3.10674 8.3874 3.43034 8.48321C3.52514 8.51137 3.58515 8.49121 3.65502 8.41943C4.09452 7.9661 4.53978 7.51856 4.98312 7.0691C5.01162 7.04039 5.03792 7.00946 5.07108 6.9733C5.04477 6.94237 5.0234 6.91394 4.99874 6.88909C4.58773 6.47193 4.17536 6.05614 3.76599 5.63732C3.70845 5.57851 3.65886 5.56167 3.57501 5.58266C1.92167 5.99761 0.307231 4.88333 0.0863828 3.17823C-0.110627 1.65838 0.996626 0.215285 2.50584 0.0250621C4.07562 -0.172891 5.46756 0.904393 5.67772 2.48608C5.72348 2.82953 5.70074 3.17298 5.62018 3.51202C5.60867 3.56033 5.61881 3.63681 5.65032 3.66939C6.08654 4.1194 6.52823 4.56418 6.96883 5.00978C6.97815 5.01917 6.9913 5.02441 7.03158 5.05009C7.06337 5.00785 7.09405 4.95594 7.13488 4.91425C7.58343 4.45706 8.03279 4.00041 8.48408 3.54625C8.53998 3.49021 8.56765 3.43996 8.55012 3.35465C8.17336 1.5173 9.60832 -0.133135 11.4669 0.00877308C11.7176 0.027823 11.9691 0.0979486 12.2094 0.177185C12.4459 0.255317 12.6687 0.375414 12.9172 0.485848C12.8756 0.531126 12.8446 0.567293 12.8112 0.600976C12.3829 1.03305 11.9535 1.46429 11.5258 1.8972C11.4105 2.01398 11.3704 2.1534 11.4233 2.31353C11.4746 2.46814 11.5855 2.55511 11.7414 2.58051C11.8952 2.60535 12.0133 2.5333 12.1179 2.42755C12.5328 2.00791 12.949 1.58936 13.3649 1.17082C13.3992 1.1363 13.4356 1.10373 13.4808 1.06093C13.6976 1.49494 13.9151 1.91183 13.9729 2.39028C13.9779 2.43032 13.9905 2.46924 13.9992 2.50845V3.03191H13.9998ZM11.1559 13.1767C11.9683 13.1775 12.6991 12.6847 13.0074 11.9287C13.3164 11.1706 13.1427 10.2836 12.5462 9.7231C11.9034 9.11931 11.1578 8.99286 10.3462 9.3283C10.1941 9.39125 10.1136 9.36999 10.0007 9.25514C8.25008 7.47356 6.49426 5.69695 4.73734 3.922C4.66555 3.84939 4.64966 3.795 4.6924 3.69893C4.8716 3.29501 4.92887 2.87454 4.84228 2.43584C4.67733 1.59847 4.00355 0.963751 3.13797 0.835648C2.32884 0.715827 1.49312 1.15977 1.10623 1.91486C0.721526 2.66554 0.848938 3.59236 1.42079 4.20471C2.01455 4.83999 2.87164 5.01999 3.70105 4.67047C3.84354 4.61028 3.92492 4.62657 4.03507 4.73866C5.74376 6.478 7.45574 8.2143 9.17539 9.94287C9.34144 10.1096 9.38227 10.2311 9.29294 10.4644C8.79124 11.775 9.76204 13.1753 11.1559 13.1767ZM8.34982 6.38109C8.37804 6.35404 8.41476 6.32091 8.44956 6.28557C8.97318 5.75493 9.5053 5.23258 10.0147 4.68842C10.1777 4.51421 10.2988 4.49267 10.5197 4.58267C11.651 5.04263 12.8772 4.3781 13.1391 3.18044C13.1835 2.97696 13.1978 2.77156 13.1457 2.55455C12.9561 2.72711 12.7931 2.91954 12.6089 3.08905C11.9631 3.68374 10.9219 3.41318 10.6487 2.57885C10.4939 2.10592 10.5997 1.6813 10.9416 1.32239C11.0942 1.16226 11.2584 1.01345 11.4173 0.859391C10.7222 0.791198 10.1555 1.01538 9.73628 1.54767C9.26445 2.1465 9.18581 2.81932 9.45269 3.53162C9.49351 3.64067 9.48036 3.70942 9.39597 3.79362C8.82001 4.36871 8.25008 4.95014 7.67823 5.52965C7.647 5.5614 7.61713 5.59453 7.58699 5.62655C7.84483 5.88166 8.09417 6.12848 8.34954 6.38137L8.34982 6.38109ZM2.57024 13.0657C2.58503 13.085 2.6001 13.104 2.6149 13.1234C3.17716 13.1573 3.67941 12.9958 4.08302 12.5963C4.6787 12.0066 4.83708 11.2946 4.5691 10.5006C4.508 10.3194 4.53677 10.2184 4.66692 10.09C5.22014 9.54393 5.76157 8.98623 6.30739 8.43241C6.34136 8.3979 6.37424 8.362 6.39753 8.33716C6.13942 8.07847 5.892 7.83082 5.62703 7.56522C5.60347 7.59504 5.57552 7.63728 5.54072 7.67262C5.02422 8.19718 4.49786 8.71263 3.99424 9.24934C3.8271 9.42742 3.70297 9.4611 3.4687 9.3653C2.39186 8.92522 1.20734 9.52294 0.888943 10.645C0.820168 10.8874 0.796329 11.1333 0.835238 11.4208C1.0169 11.2341 1.17226 11.0674 1.3353 10.9086C1.6863 10.5665 2.10306 10.4569 2.56832 10.6019C3.398 10.8606 3.69037 11.8951 3.11825 12.5541C2.95521 12.7421 2.75382 12.8962 2.56996 13.0657H2.57024Z" fill="#373737"/>
<path id="Vector_2" d="M11.1517 9.99539C11.7962 9.99236 12.3201 10.5144 12.3226 11.163C12.3253 11.8051 11.7951 12.3402 11.1567 12.3396C10.5163 12.3391 9.99214 11.8076 9.99488 11.161C9.99735 10.5164 10.5117 9.99815 11.1517 9.99512V9.99539ZM11.1621 10.8192C10.9698 10.8167 10.8117 10.9722 10.8114 11.1643C10.8111 11.3543 10.9725 11.5166 11.16 11.515C11.3424 11.5133 11.4994 11.3581 11.5049 11.1737C11.5107 10.9838 11.3542 10.822 11.1624 10.8195L11.1621 10.8192Z" fill="#373737"/>
<path id="Vector_3" d="M2.88468 4.00498C2.2394 4.00553 1.71934 3.48152 1.72071 2.83217C1.72208 2.18641 2.25173 1.65522 2.88934 1.66019C3.52558 1.66516 4.04427 2.18945 4.04618 2.82996C4.04838 3.48014 3.52996 4.00443 2.8844 4.00498H2.88468ZM3.22718 2.8388C3.2291 2.64499 3.07456 2.48541 2.8844 2.48486C2.69452 2.4843 2.53888 2.64361 2.53998 2.83714C2.54108 3.02654 2.68849 3.17755 2.87618 3.18197C3.06936 3.18639 3.22554 3.03371 3.22718 2.8388Z" fill="#373737"/>
</g>
</svg>
