<svg width="14" height="14" viewBox="0 0 14 14" fill="none" xmlns="http://www.w3.org/2000/svg">
<path d="M6.54613 0C6.83282 0 7.13145 0 7.41814 0C7.65705 0.0359281 7.88401 0.0479042 8.12291 0.0958084C9.4369 0.323353 10.6075 0.874251 11.6109 1.76048C12.8413 2.8503 13.6058 4.20359 13.8925 5.82036C13.9403 6.07186 13.9642 6.33533 14 6.58683V7.26946C14 7.26946 13.9881 7.35329 13.9761 7.38922C13.9164 7.78443 13.8925 8.17964 13.8089 8.56287C13.4625 10.1557 12.698 11.485 11.4198 12.503C10.1178 13.5329 8.62461 14 6.97616 14C5.55467 14 4.20485 13.6527 3.03421 12.8383C0.669044 11.2096 -0.226854 8.87425 0.0478881 6.08383C0.203177 4.53892 0.90795 3.20958 1.99497 2.09581C3.04616 1.02994 4.31236 0.371257 5.78163 0.107784C6.03248 0.0598802 6.29528 0.0359281 6.54613 0ZM6.40279 9.98802C6.40279 10.1916 6.40279 10.3832 6.40279 10.5868C6.40279 10.7904 6.49835 10.9341 6.66559 11.0419C7.03589 11.2575 7.57343 11.0539 7.56148 10.5509C7.56148 10.3593 7.56148 10.1796 7.56148 9.98802C7.63315 9.98802 7.69288 9.97605 7.75261 9.96407C8.43349 9.89221 8.89936 9.53293 9.16215 8.8982C9.58024 7.90419 9.07854 6.87425 8.08708 6.63473C7.81233 6.57485 7.52565 6.53892 7.25091 6.49102C6.90449 6.43114 6.57002 6.38323 6.22361 6.32335C6.00859 6.28743 5.86525 6.16766 5.82941 5.98802C5.75774 5.62874 6.03248 5.28144 6.40279 5.28144C6.82087 5.28144 7.23896 5.28144 7.65704 5.28144C7.9079 5.28144 8.09902 5.37725 8.23042 5.58084C8.42154 5.86826 8.76796 5.9521 9.0427 5.77246C9.31744 5.59281 9.38911 5.24551 9.20993 4.94611C8.94714 4.52695 8.57683 4.2515 8.09902 4.14371C7.93179 4.10778 7.75261 4.09581 7.56148 4.07186C7.56148 3.86826 7.56148 3.67665 7.56148 3.47305C7.56148 3.28144 7.46592 3.12575 7.29869 3.01796C6.92838 2.8024 6.39084 3.01796 6.40279 3.52096C6.40279 3.71257 6.40279 3.89222 6.40279 4.08383C6.34306 4.08383 6.29528 4.09581 6.23555 4.09581C5.47106 4.17964 4.90963 4.65868 4.7185 5.41317C4.50349 6.27545 4.88574 7.07784 5.68607 7.36527C5.96081 7.46108 6.25944 7.49701 6.55808 7.54491C6.95227 7.61677 7.35841 7.67665 7.75261 7.7485C7.94373 7.78443 8.08708 7.88024 8.13486 8.08383C8.21847 8.44311 7.93179 8.79042 7.56148 8.79042C7.1434 8.79042 6.72531 8.79042 6.30723 8.79042C6.05638 8.79042 5.86525 8.69461 5.73385 8.49102C5.54273 8.20359 5.19631 8.11976 4.92157 8.2994C4.64683 8.47904 4.57516 8.82635 4.75434 9.11377C5.01713 9.53293 5.38744 9.80838 5.86525 9.91617C6.03248 9.9521 6.21166 9.96407 6.40279 9.98802Z" fill="#373737"/>
</svg>
