<svg width="14" height="11" viewBox="0 0 14 11" fill="none" xmlns="http://www.w3.org/2000/svg">
<g id="Motor">
<path id="Vector" d="M10.9992 7.75344H9.99983C9.99983 7.82421 9.99983 7.89363 9.99983 7.96304C9.99983 8.39392 10.0014 8.82495 9.99914 9.25584C9.99691 9.69911 9.62987 10.116 9.1834 10.1847C9.12201 10.1941 9.05924 10.1993 8.99717 10.1994C7.54831 10.2001 6.09945 10.2 4.65073 10.1997C4.4377 10.1997 4.2455 10.1345 4.07594 10.0106C3.52142 9.60547 2.96773 9.19922 2.41502 8.79147C2.13547 8.58528 1.99868 8.30832 1.99951 7.96494C2.00076 7.43416 2.00007 6.90337 2.00021 6.37272C2.00021 6.3455 2.00021 6.31842 2.00021 6.28562H1.00032C1.00032 6.31066 1.00032 6.33693 1.00032 6.3632C1.00032 6.98925 1.00116 7.61517 1.00018 8.24122C0.999767 8.47722 0.841869 8.6668 0.606479 8.72015C0.304153 8.78875 0.00168869 8.5586 0.0011332 8.25347C-0.000672144 7.26907 0.000438838 6.28467 0.000299965 5.30027C0.000299965 4.64931 -0.000533271 3.99835 0.00057771 3.34739C0.000994329 3.09955 0.159587 2.9116 0.407891 2.8588C0.698274 2.79701 0.998795 3.02837 0.999906 3.32044C1.00227 3.95099 1.0006 4.58153 1.0006 5.21208C1.0006 5.23875 1.0006 5.26556 1.0006 5.29591H2.00048C2.00048 5.27114 2.00048 5.24501 2.00048 5.21902C2.00048 4.58398 1.99896 3.94881 2.00104 3.31377C2.00271 2.80544 2.45501 2.36204 2.97468 2.36067C3.78708 2.3585 4.59935 2.36013 5.41175 2.36013C5.43897 2.36013 5.46605 2.36013 5.4966 2.36013V1.38022C5.47008 1.38022 5.44342 1.38022 5.41675 1.38022C4.77794 1.38022 4.13912 1.38022 3.50045 1.38022C3.22492 1.38022 3.00162 1.16178 3.0012 0.892715C3.00051 0.621199 3.22173 0.400447 3.49586 0.400447C5.15998 0.399902 6.82409 0.399902 8.48806 0.399902C8.78136 0.399902 9.00161 0.613849 9.0005 0.895029C8.99939 1.16273 8.78011 1.37981 8.50639 1.38022C7.86536 1.38117 7.22418 1.38049 6.58314 1.38063C6.55829 1.38063 6.53329 1.38063 6.50426 1.38063V2.35959C6.52857 2.35959 6.55287 2.35959 6.57717 2.35959C7.38722 2.35959 8.19726 2.35959 9.00731 2.35959C9.55391 2.35959 10.0041 2.80653 10.0004 3.34208C9.99816 3.66409 9.99997 3.9861 9.99997 4.31396H10.9993C10.9993 4.29164 10.9993 4.26769 10.9993 4.24373C10.9993 3.78549 10.9992 3.32738 10.9993 2.86914C10.9994 2.57204 11.2162 2.35999 11.5195 2.35986C11.8435 2.35972 12.1675 2.35918 12.4916 2.35959C13.3324 2.3604 13.9996 3.013 13.9998 3.83571C14.0002 5.31224 13.9999 6.78891 13.9998 8.26545C13.9998 8.97969 13.4239 9.61378 12.6958 9.6968C12.5813 9.70986 12.465 9.70864 12.3496 9.70932C12.0649 9.71081 11.7802 9.71081 11.4955 9.70932C11.219 9.70768 10.9997 9.49061 10.9993 9.21814C10.9983 8.7554 10.999 8.29267 10.9989 7.83007C10.9989 7.80571 10.9989 7.78148 10.9989 7.75358L10.9992 7.75344ZM8.99953 3.34521H3.00301C3.00217 3.3644 3.00106 3.37788 3.00106 3.39135C3.00106 4.89959 3.0012 6.40784 2.99967 7.91622C2.99967 7.97161 3.01467 8.00645 3.06078 8.04007C3.57849 8.41801 4.09399 8.79868 4.61185 9.17622C4.64559 9.20085 4.69448 9.21746 4.73641 9.21746C6.13195 9.21963 7.52748 9.21923 8.92315 9.21923C8.94745 9.21923 8.97189 9.21923 8.99981 9.21923C8.99981 9.18003 8.99981 9.15077 8.99981 9.12151C8.99995 8.50226 8.99981 7.88315 9.0005 7.2639C9.00078 6.9849 9.222 6.76986 9.5078 6.76972C10.172 6.76945 10.8363 6.76932 11.5005 6.76972C11.7809 6.76986 12.0011 6.98884 12.0006 7.26335C11.9999 7.60809 12.0002 7.95283 12 8.29757C12 8.43965 12 8.58174 12 8.729C12.1671 8.729 12.3264 8.729 12.4855 8.729C12.782 8.72873 12.9991 8.51777 12.9995 8.22856C13 7.87702 12.9996 7.52548 12.9996 7.17407C12.9996 6.06269 12.9996 4.95131 12.9996 3.83993C12.9996 3.59101 12.8378 3.38427 12.5858 3.35433C12.3952 3.33174 12.1997 3.34984 12.0003 3.34984C12.0003 3.37216 12.0003 3.39652 12.0003 3.42088C12.0003 3.8858 12.0008 4.35084 12.0002 4.81576C11.9997 5.08387 11.7793 5.29931 11.5056 5.29945C10.8368 5.29986 10.168 5.29986 9.49905 5.29945C9.2227 5.29931 9.0012 5.0821 9.00022 4.81154C8.99967 4.64373 9.00008 4.47592 9.00008 4.30797C9.00008 3.98841 9.00008 3.66885 9.00008 3.3448L8.99953 3.34521Z" fill="#373737"/>
<path id="Vector_2" d="M6.21647 5.474C6.71726 5.474 7.19903 5.47327 7.68061 5.47429C8.03471 5.47502 8.30926 5.63937 8.38319 5.89682C8.42161 6.03028 8.39483 6.15981 8.29413 6.2739C7.82322 6.80803 7.35212 7.34203 6.87462 7.87281C6.65672 8.11497 6.22676 8.1696 5.90564 8.007C5.59151 7.8479 5.50594 7.531 5.71705 7.28666C5.91728 7.05456 6.12392 6.82566 6.32765 6.59517C6.34492 6.57564 6.36103 6.55539 6.3878 6.52319C6.1703 6.52319 5.96851 6.52319 5.76672 6.52319C5.47897 6.52319 5.19123 6.52523 4.90349 6.52319C4.6235 6.52115 4.41259 6.42528 4.28395 6.23966C4.15706 6.05651 4.17588 5.87351 4.32722 5.70173C4.61768 5.37187 4.91183 5.0436 5.20403 4.71461C5.37439 4.52287 5.54203 4.32967 5.71511 4.13939C5.8843 3.95347 6.12431 3.87057 6.41807 3.90918C6.72871 3.94998 6.92157 4.09728 6.98715 4.33011C7.02712 4.47217 6.98386 4.60402 6.87636 4.72466C6.67341 4.95269 6.47123 5.181 6.26906 5.40931C6.25353 5.42679 6.23976 5.44501 6.21647 5.474Z" fill="#373737"/>
</g>
</svg>
