<svg width="20" height="20" viewBox="0 0 20 20" fill="none" xmlns="http://www.w3.org/2000/svg">
<g id="Group 232">
<path id="Vector" d="M2.82647 14.3402L3.77983 13.3935C2.73594 12.4562 1.91576 11.2966 1.37976 10.0001C2.73313 6.61996 6.46658 3.99988 10 3.99988C10.9093 4.01188 11.8104 4.17407 12.6668 4.47989L13.7001 3.43986C12.5285 2.94473 11.2718 2.68207 10 2.6665C7.82696 2.74822 5.72548 3.4649 3.9553 4.72796C2.18513 5.99101 0.823848 7.74509 0.0397176 9.77338C-0.0132392 9.91986 -0.0132392 10.0803 0.0397176 10.2267C0.6319 11.7981 1.58672 13.2075 2.82647 14.3402Z" fill="#373737"/>
<path id="Vector_2" d="M7.33313 9.82011C7.37949 9.18123 7.65426 8.58039 8.1072 8.12745C8.56014 7.67451 9.16099 7.39973 9.79986 7.35337L11.0066 6.14C10.3304 5.96196 9.61935 5.96427 8.94434 6.14671C8.26934 6.32914 7.65394 6.68533 7.15952 7.17976C6.66509 7.67419 6.3089 8.28958 6.12646 8.96459C5.94403 9.6396 5.94171 10.3506 6.11976 11.0268L7.33313 9.82011ZM19.9602 9.77344C19.1957 7.78218 17.8655 6.05801 16.1334 4.81329L19.3335 1.60653L18.3935 0.666504L0.66626 18.3937L1.60629 19.3337L5.00639 15.9336C6.52235 16.823 8.24251 17.3053 9.99987 17.3337C12.1729 17.2519 14.2744 16.5353 16.0446 15.2722C17.8148 14.0092 19.176 12.2551 19.9602 10.2268C20.0131 10.0803 20.0131 9.91992 19.9602 9.77344ZM12.6666 10.0001C12.6638 10.4669 12.5385 10.9247 12.3033 11.3279C12.0681 11.731 11.7312 12.0654 11.3263 12.2976C10.9214 12.5297 10.4626 12.6515 9.99587 12.6508C9.52911 12.6501 9.07072 12.5269 8.6665 12.2935L12.2933 8.66674C12.533 9.07057 12.6617 9.53054 12.6666 10.0001ZM9.99987 16.0003C8.6012 15.9759 7.22905 15.6145 5.99975 14.9469L7.69314 13.2535C8.46338 13.788 9.39688 14.0349 10.3306 13.9512C11.2644 13.8675 12.1391 13.4585 12.802 12.7956C13.4649 12.1327 13.8739 11.258 13.9576 10.3242C14.0413 9.39045 13.7944 8.45696 13.26 7.68671L15.1734 5.77332C16.7031 6.82334 17.8994 8.29035 18.6201 10.0001C17.2668 13.3802 13.5333 16.0003 9.99987 16.0003Z" fill="#373737"/>
</g>
</svg>
