<svg width="12" height="15" viewBox="0 0 12 15" fill="none" xmlns="http://www.w3.org/2000/svg">
<path d="M11.9983 5.18591C11.9983 5.00941 11.9785 4.83291 11.9673 4.65641C11.9578 4.50438 11.8925 4.38467 11.7841 4.27545C10.4813 2.95694 9.17842 1.63844 7.88761 0.309446C7.71046 0.127704 7.52729 0.0342115 7.28478 0.0298427C6.92703 0.0211051 6.56929 0.000134788 6.21068 0.000134788C4.77711 -0.000738974 3.34269 0.00275607 1.90913 0.00712488C0.859967 0.0106199 0.0395585 0.823218 0.00343987 1.88921C0.00171993 1.93115 0.00171993 1.97221 0.00171993 2.01416C0.00171993 5.6726 0.0025799 9.33103 0 12.9903C0 13.692 0.26401 14.2494 0.824708 14.661C1.07926 14.8471 1.37337 14.9327 1.6735 15H10.3402C10.6653 14.9231 10.9792 14.8226 11.2475 14.6077C11.7222 14.2267 11.9931 13.7313 11.9948 13.1179C12.0034 10.4739 11.9991 7.83079 11.9974 5.18678L11.9983 5.18591ZM2.60054 6.82072C2.67622 6.63024 2.82069 6.52626 3.02192 6.50529C3.0675 6.50092 3.11394 6.50354 3.16038 6.50354C5.0609 6.50354 6.96057 6.50354 8.8611 6.50354C8.92731 6.50354 8.99525 6.50179 9.05975 6.5149C9.30054 6.56645 9.46737 6.79451 9.44845 7.04091C9.43039 7.28643 9.23174 7.4839 8.98493 7.50138C8.93935 7.50487 8.89292 7.50313 8.84648 7.50313C7.89879 7.50313 6.95111 7.50313 6.00429 7.50313C5.03081 7.50313 4.05818 7.50487 3.0847 7.50313C2.71061 7.50225 2.46724 7.15799 2.60054 6.82247V6.82072ZM5.94581 12.5002C5.47455 12.5002 5.00329 12.5002 4.53202 12.5002C4.0556 12.5002 3.57918 12.501 3.10362 12.5002C2.78973 12.5002 2.56786 12.2931 2.56528 12.0047C2.5627 11.7085 2.78543 11.5015 3.10964 11.5015C4.05732 11.5015 5.00415 11.5015 5.95183 11.5015C6.27604 11.5015 6.49963 11.7094 6.49791 12.0039C6.49619 12.2983 6.2726 12.4993 5.94581 12.5002ZM9.44759 9.5521C9.42266 9.80374 9.21712 9.99859 8.95827 10.0003C8.30298 10.0047 7.64682 10.0021 6.99153 10.0021C6.66388 10.0021 6.33623 10.0021 6.00859 10.0021C5.03511 10.0021 4.06248 10.0038 3.089 10.0021C2.71319 10.0021 2.46896 9.66132 2.59968 9.32405C2.67364 9.13269 2.81811 9.02784 3.01848 9.00512C3.06406 8.99988 3.1105 9.00337 3.15694 9.00337C5.05746 9.00337 6.95713 9.00337 8.85766 9.00337C8.92387 9.00337 8.99181 9.00075 9.05631 9.01386C9.30312 9.06454 9.47339 9.30133 9.44759 9.55297V9.5521ZM7.87815 4.19244V1.77824C8.67104 2.58472 9.46307 3.3912 10.2499 4.19244H7.87815Z" fill="#373737"/>
</svg>
