<svg width="20" height="20" viewBox="0 0 20 20" fill="none" xmlns="http://www.w3.org/2000/svg">
<path d="M14.1993 11.7152C14.2009 11.3562 13.9017 11.3521 13.7227 11.3497C13.7118 11.3497 13.7008 11.3494 13.6901 11.3492C13.6901 11.2994 13.6901 11.2521 13.6901 11.2045C13.6885 10.8806 13.5564 10.7484 13.2347 10.7476C12.9098 10.7468 12.5852 10.7471 12.2602 10.7473H11.9249C11.601 10.7473 11.5124 10.799 11.4232 11.0791C11.3908 11.0831 11.3632 11.0858 11.3501 11.0845C11.3396 11.0683 11.3233 11.0204 11.3072 10.9739C11.27 10.8655 11.233 10.7571 11.196 10.6487C11.1044 10.3794 11.0096 10.1009 10.9113 9.82837C10.8885 9.76565 10.8923 9.73996 10.9311 9.6913C11.1009 9.47825 11.2708 9.2598 11.435 9.04838C11.5735 8.87021 11.7168 8.68582 11.859 8.50603C11.9683 8.36788 11.9937 8.22432 11.9391 8.05453C11.6072 7.02229 11.271 5.97247 10.9461 4.95726C10.7709 4.40978 10.5955 3.86202 10.4201 3.31454C10.3292 3.03174 10.1554 2.94279 9.87309 3.03499C8.68406 3.42214 7.45941 3.82174 6.12923 4.25675C5.82869 4.35489 5.7411 4.52441 5.83672 4.82343C5.97414 5.25331 6.11182 5.68318 6.24949 6.11279C6.60896 7.2356 6.98075 8.39627 7.34396 9.53909C7.40129 9.71915 7.5103 9.82594 7.68763 9.87461C7.84406 9.91759 8.00263 9.96491 8.15611 10.0109C8.40602 10.0855 8.66478 10.1628 8.92379 10.2242C9.1496 10.2774 9.24978 10.3715 9.29344 10.5711C9.32639 10.7214 9.37996 10.8655 9.43219 11.0053C9.4413 11.0299 9.45067 11.055 9.46005 11.0802C9.42817 11.0802 9.3963 11.0807 9.36442 11.081C9.1796 11.0823 8.98835 11.0839 8.80085 11.0823C8.4971 11.081 8.24772 11.1705 8.03906 11.36C8.02459 11.3732 7.98522 11.3873 7.94477 11.3884C7.80897 11.3913 7.67022 11.3911 7.53602 11.3908C7.42968 11.3905 7.31932 11.3903 7.21084 11.3916C6.99146 11.3943 6.8428 11.5071 6.8136 11.6928C6.79593 11.8042 6.82164 11.9083 6.88539 11.9856C6.95262 12.067 7.05762 12.1135 7.18084 12.1164C7.31664 12.1197 7.4503 12.1189 7.59173 12.1183C7.61316 12.1183 7.63486 12.1183 7.65656 12.1181C7.64959 12.1419 7.64263 12.1643 7.63539 12.1867C7.37905 12.973 7.12245 13.7594 6.86611 14.5457L6.25057 16.4328C6.1611 16.7072 6.19699 16.8202 6.42521 16.9827C6.44101 16.9941 6.45976 17 6.47932 17H6.82673C6.83798 17 6.84923 16.9978 6.85994 16.9938C6.86798 16.9905 6.87602 16.987 6.88432 16.9835C6.89048 16.9808 6.89878 16.977 6.90119 16.9762C8.0787 16.8021 8.88362 16.144 9.29424 15.0207C9.42415 14.6652 9.54201 14.2991 9.65558 13.9452C9.70541 13.7903 9.75683 13.6299 9.8088 13.4729C9.87014 13.2868 9.9588 13.1728 10.0903 13.1135C10.0917 13.1211 10.0927 13.1287 10.0935 13.1363C10.1559 13.6467 10.3295 14.1058 10.6086 14.5005C10.772 14.7314 10.9676 14.9401 11.1564 15.1418C11.2255 15.2156 11.3166 15.2567 11.4122 15.2575H11.4149C11.5057 15.2575 11.593 15.2218 11.661 15.1567C11.8033 15.0207 11.8062 14.803 11.6677 14.6392C11.6482 14.6159 11.6276 14.5962 11.6077 14.5773C11.589 14.5592 11.5713 14.5421 11.5574 14.5248C11.5169 14.4745 11.4749 14.4243 11.4342 14.3759C11.3321 14.2542 11.2266 14.1282 11.1414 13.9957C10.9635 13.72 10.8543 13.4134 10.8082 13.0606H11.4245C11.4915 13.2893 11.5718 13.3866 11.8062 13.388C12.2999 13.3915 12.804 13.3915 13.3041 13.388C13.543 13.3863 13.6799 13.2503 13.6893 13.0049C13.6919 12.9359 13.6914 12.8686 13.6906 12.7975C13.6906 12.7959 13.6906 12.794 13.6906 12.7924C13.6986 12.7924 13.7067 12.7924 13.715 12.7924C13.8969 12.7913 14.2009 12.7897 14.1993 12.4257C14.1979 12.1602 14.0335 12.09 13.8765 12.0705C14.0332 12.0505 14.1985 11.9807 14.1998 11.7158L14.1993 11.7152ZM12.9623 11.4814V12.652H12.1469V11.4814H12.9623ZM8.35459 12.2995C8.3921 12.1862 8.42745 12.0791 8.47138 11.9756C8.51317 11.878 8.59192 11.8236 8.70603 11.8142C8.75719 11.8099 8.79576 11.808 8.83138 11.808C9.49299 11.8077 10.1546 11.808 10.8162 11.8077H11.4093V12.3246H8.34602C8.3487 12.3162 8.35165 12.3079 8.35433 12.2995H8.35459ZM11.1698 8.21675C11.0305 8.39194 10.8909 8.57146 10.7557 8.74476C10.6121 8.92888 10.4637 9.11948 10.3159 9.30495C10.2859 9.34253 10.2366 9.37741 10.1908 9.39363C10.1233 9.41742 10.0552 9.44473 9.9896 9.47095C9.80933 9.54341 9.63898 9.61181 9.4713 9.6156C9.31674 9.61938 9.15603 9.56207 8.98594 9.50151C8.91094 9.47474 8.83326 9.44716 8.75558 9.42499C8.70549 9.41066 8.65513 9.39661 8.60504 9.38228C8.41942 9.32983 8.22736 9.27548 8.0412 9.21627C8.01977 9.20951 7.99165 9.18275 7.98709 9.17085C7.66165 8.16375 7.33459 7.13881 7.01825 6.14739L6.89262 5.75402L10.1091 4.70582C10.1158 4.72394 10.1222 4.74124 10.1276 4.75827C10.2194 5.04513 10.311 5.33171 10.4026 5.61857C10.6614 6.42803 10.929 7.26534 11.1944 8.08778C11.2124 8.14294 11.2073 8.16943 11.1698 8.21647V8.21675ZM10.5837 11.0826C10.58 11.0826 10.5762 11.0826 10.5725 11.0826C10.453 11.0834 10.3493 11.0842 10.2451 11.0785C10.2382 11.0756 10.2269 11.0672 10.2226 11.0612C10.1396 10.8347 10.0619 10.6095 9.97969 10.371C9.9655 10.3296 9.95103 10.288 9.93657 10.2461L10.2572 10.139L10.5837 11.0823V11.0826ZM9.88835 4.01451L6.67191 5.06297L6.60735 4.86344L9.82407 3.81552L9.88835 4.01478V4.01451ZM9.18844 13.0662C9.15228 13.1752 9.11638 13.2844 9.08049 13.3936C8.96371 13.7489 8.84317 14.1163 8.71594 14.474L8.70844 14.4954C8.61602 14.7555 8.52067 15.0242 8.38138 15.2556C8.09049 15.7393 7.66406 16.0499 7.08093 16.2024L8.10468 13.066H9.18844V13.0662Z" fill="#373737"/>
</svg>
