<svg width="14" height="14" viewBox="0 0 14 14" fill="none" xmlns="http://www.w3.org/2000/svg">
<g id="Vector">
<path id="Vector_2" d="M14 11.3125C14 10.2083 14 9.125 14 8.02083C13.9595 8.02083 13.9392 8.02083 13.8987 8.02083C11.8321 8.02083 9.76556 8.02083 7.69899 8.02083C7.65847 8.02083 7.61795 8.02083 7.55716 8.02083C7.55716 8.10417 7.55716 8.16667 7.55716 8.25C7.55716 8.41667 7.55716 8.58333 7.55716 8.75C7.49638 9.04167 7.233 9.22917 6.92909 9.1875C6.6657 9.16667 6.44284 8.91667 6.42258 8.625C6.42258 8.41667 6.42258 8.20833 6.42258 8H9.53674e-07C9.53674e-07 8 9.53674e-07 8.0625 9.53674e-07 8.08333C9.53674e-07 9.0625 9.53674e-07 10.0417 9.53674e-07 11.0417C9.53674e-07 12.2708 0.769899 13.375 1.88423 13.7917C2.12735 13.875 2.39074 13.9167 2.65413 14H11.3459C11.3459 14 11.4067 14 11.4472 13.9792C12.6223 13.8333 13.5948 12.9792 13.8987 11.7917C13.9392 11.625 13.9595 11.4583 14 11.3125Z" fill="#373737"/>
<path id="Vector_3" d="M14 7C14 6.31064 14 5.64156 14 4.97248C14 4.93193 13.9797 4.89138 13.9797 4.85083C13.8378 3.7357 13.0067 2.76249 11.9324 2.43809C11.4864 2.31644 11.0608 2.31644 10.5945 2.31644C10.4932 2.31644 10.4324 2.31644 10.3918 2.17451C10.108 0.998552 9.11477 0.12672 7.9188 0.025344C7.41203 -0.0152064 6.92554 0.00506879 6.41877 0.00506879C5.0809 0.00506879 3.92548 0.897176 3.60115 2.19479C3.58088 2.31644 3.52006 2.33671 3.41871 2.33671C3.09438 2.33671 2.74978 2.33671 2.42545 2.37726C1.18894 2.55974 0.134862 3.63432 0.0335093 4.89138C-0.0273027 5.58074 0.013238 6.27009 0.013238 6.95945C0.013238 6.95945 0.013238 6.95945 0.013238 7H14ZM4.77684 2.31644C4.77684 2.31644 4.77684 2.27589 4.77684 2.25561C4.99982 1.64736 5.62821 1.18103 6.27688 1.16075C6.72283 1.16075 7.16878 1.16075 7.61474 1.16075C7.99988 1.16075 8.36475 1.30268 8.64854 1.54598C8.89179 1.74873 9.07423 1.99203 9.17558 2.31644H4.7363H4.77684Z" fill="#373737"/>
</g>
</svg>
