<svg width="14" height="14" viewBox="0 0 14 14" fill="none" xmlns="http://www.w3.org/2000/svg">
<g id="Rims">
<path id="Vector" d="M6.58924 13.9999C6.32376 13.964 6.05663 13.9377 5.79334 13.8909C4.17906 13.6036 2.82835 12.8401 1.74422 11.614C0.755155 10.4955 0.178979 9.18539 0.0365104 7.70162C-0.139383 5.87032 0.328297 4.20634 1.45243 2.74503C2.49354 1.39161 3.85467 0.514437 5.52922 0.164991C7.62104 -0.271268 9.53944 0.156502 11.243 1.44638C12.6124 2.48322 13.476 3.86046 13.8417 5.54114C13.9064 5.838 13.9313 6.14336 13.9749 6.4446C13.982 6.49335 13.9919 6.54182 14.0003 6.59057V7.41078C13.9888 7.50937 13.9768 7.60796 13.9658 7.70655C13.802 9.18813 13.2417 10.4983 12.2529 11.6159C11.1691 12.8409 9.81889 13.6039 8.20516 13.8909C7.94187 13.9377 7.67474 13.964 7.40953 13.9999H6.58924ZM13.299 7.0041C13.3039 3.53484 10.4942 0.720106 7.00925 0.7034C3.54233 0.686695 0.705017 3.51759 0.700085 6.99807C0.695153 10.4673 3.5048 13.2821 6.9898 13.2988C10.4567 13.3155 13.294 10.4846 13.299 7.0041Z" fill="#373737"/>
<path id="Vector_2" d="M7.00316 2.90625C9.25306 2.90707 11.1062 4.76494 11.095 7.00867C11.0838 9.26309 9.25197 11.0925 7.00179 11.0963C4.75215 11.1001 2.90198 9.25131 2.90308 7.00073C2.90417 4.74796 4.74887 2.9057 7.00316 2.90652V2.90625ZM8.38455 3.90337C7.45385 3.51175 6.54397 3.51175 5.63491 3.89461C5.63491 3.91734 5.63162 3.9283 5.63546 3.93487C5.92094 4.43192 6.20561 4.92953 6.49575 5.42357C6.51274 5.4526 6.57904 5.47533 6.61466 5.46739C6.87274 5.40824 7.12809 5.40878 7.3859 5.46739C7.42125 5.47533 7.48673 5.45123 7.50399 5.42193C7.79687 4.92432 8.08427 4.42343 8.38455 3.9031V3.90337ZM8.37031 10.0973C8.36373 10.0756 8.36236 10.0617 8.35606 10.0504C8.07468 9.56132 7.79468 9.07166 7.50728 8.58611C7.48755 8.5527 7.40892 8.5286 7.3659 8.53791C7.12124 8.59159 6.8785 8.59788 6.63603 8.53353C6.55822 8.51299 6.51575 8.53134 6.47411 8.605C6.20944 9.07221 5.93875 9.53558 5.67053 10.0009C5.65327 10.031 5.64121 10.0641 5.62697 10.0956C6.42917 10.4894 7.54974 10.49 8.37058 10.097L8.37031 10.0973ZM5.00942 4.25419C4.20776 4.86106 3.75076 5.64759 3.62556 6.62719C3.64474 6.63759 3.65268 6.64581 3.66063 6.64581C4.23872 6.64745 4.81681 6.6491 5.39491 6.6469C5.42066 6.6469 5.46285 6.61678 5.46998 6.59241C5.55354 6.30184 5.70806 6.05427 5.9256 5.83984C5.61984 5.31074 5.31819 4.78849 5.00942 4.25419ZM3.6398 7.35292C3.66885 8.23748 4.31598 9.31458 5.01983 9.73084C5.30833 9.23105 5.59518 8.73016 5.88724 8.23228C5.92999 8.15971 5.89382 8.1263 5.85218 8.08248C5.68258 7.90557 5.55546 7.70181 5.49409 7.4641C5.46943 7.36853 5.42066 7.3499 5.3308 7.351C4.90284 7.35566 4.47489 7.35292 4.04721 7.35292C3.91159 7.35292 3.77597 7.35292 3.64035 7.35292H3.6398ZM8.98977 4.25337C8.69059 4.77124 8.40373 5.27213 8.1114 5.76973C8.06893 5.84203 8.10345 5.87544 8.14564 5.91953C8.31524 6.09645 8.44236 6.29992 8.50428 6.53763C8.52894 6.63239 8.57634 6.65266 8.66702 6.65156C9.06758 6.64663 9.46814 6.64937 9.86869 6.64937C10.0317 6.64937 10.1945 6.64937 10.3747 6.64937C10.2501 5.64896 9.79088 4.86435 8.98977 4.25337ZM8.07277 8.16299C8.37935 8.69291 8.68292 9.21708 8.99114 9.75001C9.79116 9.1341 10.2523 8.35168 10.3736 7.35346C9.76951 7.35346 9.18758 7.35264 8.60565 7.35565C8.57908 7.35565 8.53579 7.38441 8.52921 7.40796C8.4462 7.6988 8.29195 7.94637 8.07277 8.16299ZM7.00398 7.88037C7.48837 7.87763 7.87742 7.48738 7.87852 7.00292C7.87961 6.51326 7.48371 6.1189 6.99412 6.12191C6.50917 6.12465 6.12067 6.51436 6.11958 6.99936C6.11848 7.4893 6.51383 7.88311 7.00398 7.88037Z" fill="#373737"/>
<path id="Vector_3" d="M1.82918 7.7461C1.99384 7.74555 2.12726 7.86687 2.18316 8.05255C2.26781 8.33517 2.33576 8.62573 2.4522 8.89521C3.10235 10.4001 4.22785 11.3605 5.81172 11.7847C5.87309 11.8011 5.93556 11.8143 5.99611 11.8337C6.18186 11.8937 6.28844 12.0758 6.24104 12.247C6.18762 12.439 6.01939 12.5452 5.82295 12.5039C5.1391 12.3593 4.50101 12.0999 3.9199 11.7121C2.66317 10.8741 1.86507 9.7157 1.50616 8.24863C1.43026 7.93835 1.64013 7.74692 1.83 7.7461H1.82918Z" fill="#373737"/>
<path id="Vector_4" d="M8.13101 1.48492C8.27073 1.52107 8.44964 1.55722 8.6217 1.61391C10.6656 2.28733 11.9522 3.66978 12.4884 5.75194C12.5516 5.99814 12.4579 6.18792 12.2525 6.24187C12.0462 6.2961 11.8711 6.1756 11.8124 5.92474C11.6637 5.28857 11.4119 4.6984 11.0322 4.16574C10.3223 3.17026 9.37322 2.52367 8.18991 2.21558C8.07046 2.18464 7.9458 2.13863 7.84908 2.06551C7.73511 1.97951 7.71894 1.84149 7.771 1.70483C7.81538 1.58844 7.96662 1.48711 8.13101 1.48438V1.48492Z" fill="#373737"/>
</g>
</svg>
