<svg width="20" height="20" viewBox="0 0 20 20" fill="none" xmlns="http://www.w3.org/2000/svg">
<path d="M9.58924 16.9999C9.32376 16.964 9.05663 16.9377 8.79334 16.8909C7.17906 16.6036 5.82835 15.8401 4.74422 14.614C3.75515 13.4955 3.17898 12.1854 3.03651 10.7016C2.86062 8.87032 3.3283 7.20634 4.45243 5.74503C5.49354 4.39161 6.85467 3.51444 8.52922 3.16499C10.621 2.72873 12.5394 3.1565 14.243 4.44638C15.6124 5.48322 16.476 6.86046 16.8417 8.54114C16.9064 8.838 16.9313 9.14336 16.9749 9.4446C16.982 9.49335 16.9919 9.54182 17.0003 9.59057V10.4108C16.9888 10.5094 16.9768 10.608 16.9658 10.7065C16.802 12.1881 16.2417 13.4983 15.2529 14.6159C14.1691 15.8409 12.8189 16.6039 11.2052 16.8909C10.9419 16.9377 10.6747 16.964 10.4095 16.9999H9.58924ZM16.299 10.0041C16.3039 6.53484 13.4942 3.72011 10.0092 3.7034C6.54233 3.68669 3.70502 6.51759 3.70008 9.99807C3.69515 13.4673 6.5048 16.2821 9.9898 16.2988C13.4567 16.3155 16.294 13.4846 16.299 10.0041Z" fill="#373737"/>
<path d="M10.0034 5.90625C12.2533 5.90707 14.1065 7.76494 14.0953 10.0087C14.084 12.2631 12.2522 14.0925 10.002 14.0963C7.7524 14.1001 5.90222 12.2513 5.90332 10.0007C5.90442 7.74796 7.74911 5.9057 10.0034 5.90652V5.90625ZM11.3848 6.90337C10.4541 6.51175 9.54421 6.51175 8.63515 6.89461C8.63515 6.91734 8.63187 6.9283 8.6357 6.93487C8.92119 7.43192 9.20585 7.92953 9.49599 8.42357C9.51298 8.4526 9.57928 8.47533 9.6149 8.46739C9.87299 8.40824 10.1283 8.40878 10.3861 8.46739C10.4215 8.47533 10.487 8.45123 10.5042 8.42193C10.7971 7.92432 11.0845 7.42343 11.3848 6.9031V6.90337ZM11.3706 13.0973C11.364 13.0756 11.3626 13.0617 11.3563 13.0504C11.0749 12.5613 10.7949 12.0717 10.5075 11.5861C10.4878 11.5527 10.4092 11.5286 10.3661 11.5379C10.1215 11.5916 9.87874 11.5979 9.63627 11.5335C9.55846 11.513 9.51599 11.5313 9.47435 11.605C9.20969 12.0722 8.939 12.5356 8.67077 13.0009C8.65351 13.031 8.64146 13.0641 8.62721 13.0956C9.42942 13.4894 10.55 13.49 11.3708 13.097L11.3706 13.0973ZM8.00966 7.25419C7.208 7.86106 6.75101 8.64759 6.6258 9.62719C6.64498 9.63759 6.65292 9.64581 6.66087 9.64581C7.23896 9.64745 7.81706 9.6491 8.39515 9.6469C8.4209 9.6469 8.4631 9.61678 8.47022 9.59241C8.55378 9.30184 8.70831 9.05427 8.92585 8.83984C8.62009 8.31074 8.31844 7.78849 8.00966 7.25419ZM6.64005 10.3529C6.66909 11.2375 7.31623 12.3146 8.02007 12.7308C8.30857 12.231 8.59543 11.7302 8.88749 11.2323C8.93023 11.1597 8.89406 11.1263 8.85242 11.0825C8.68283 10.9056 8.5557 10.7018 8.49433 10.4641C8.46967 10.3685 8.4209 10.3499 8.33104 10.351C7.90309 10.3557 7.47513 10.3529 7.04745 10.3529C6.91183 10.3529 6.77621 10.3529 6.6406 10.3529H6.64005ZM11.99 7.25337C11.6908 7.77124 11.404 8.27213 11.1116 8.76973C11.0692 8.84203 11.1037 8.87544 11.1459 8.91953C11.3155 9.09645 11.4426 9.29992 11.5045 9.53763C11.5292 9.63239 11.5766 9.65266 11.6673 9.65156C12.0678 9.64663 12.4684 9.64937 12.8689 9.64937C13.032 9.64937 13.1947 9.64937 13.375 9.64937C13.2503 8.64896 12.7911 7.86435 11.99 7.25337ZM11.073 11.163C11.3796 11.6929 11.6832 12.2171 11.9914 12.75C12.7914 12.1341 13.2525 11.3517 13.3739 10.3535C12.7698 10.3535 12.1878 10.3526 11.6059 10.3557C11.5793 10.3557 11.536 10.3844 11.5295 10.408C11.4464 10.6988 11.2922 10.9464 11.073 11.163ZM10.0042 10.8804C10.4886 10.8776 10.8777 10.4874 10.8788 10.0029C10.8799 9.51326 10.484 9.1189 9.99436 9.12191C9.50942 9.12465 9.12092 9.51436 9.11982 9.99936C9.11873 10.4893 9.51408 10.8831 10.0042 10.8804Z" fill="#373737"/>
<path d="M4.82918 10.7462C4.99384 10.7457 5.12726 10.867 5.18316 11.0527C5.26781 11.3353 5.33576 11.6259 5.4522 11.8953C6.10235 13.4002 7.22785 14.3606 8.81172 14.7848C8.87309 14.8013 8.93556 14.8144 8.99611 14.8339C9.18186 14.8938 9.28844 15.0759 9.24104 15.2471C9.18762 15.4391 9.01939 15.5453 8.82295 15.504C8.1391 15.3594 7.50101 15.1 6.9199 14.7123C5.66317 13.8742 4.86507 12.7158 4.50616 11.2488C4.43026 10.9385 4.64013 10.747 4.83 10.7462H4.82918Z" fill="#373737"/>
<path d="M11.131 4.48492C11.2707 4.52107 11.4496 4.55722 11.6217 4.61391C13.6656 5.28733 14.9522 6.66978 15.4884 8.75194C15.5516 8.99814 15.4579 9.18792 15.2525 9.24187C15.0462 9.2961 14.8711 9.1756 14.8124 8.92474C14.6637 8.28857 14.4119 7.6984 14.0322 7.16574C13.3223 6.17026 12.3732 5.52367 11.1899 5.21558C11.0705 5.18464 10.9458 5.13863 10.8491 5.06551C10.7351 4.97951 10.7189 4.84149 10.771 4.70483C10.8154 4.58844 10.9666 4.48711 11.131 4.48438V4.48492Z" fill="#373737"/>
</svg>
