<svg width="15" height="16" viewBox="0 0 15 16" fill="none" xmlns="http://www.w3.org/2000/svg">
<path d="M14.1668 13.3125V14.6565C14.1145 14.8334 13.9959 14.8903 13.8203 14.8843C13.5224 14.874 13.2246 14.8813 12.9096 14.8813C12.9096 15.0575 12.9013 15.2174 12.9113 15.3755C12.9303 15.6735 12.8247 15.888 12.5453 16H11.0763C10.7986 15.8819 10.6983 15.6626 10.7173 15.3658C10.7274 15.2083 10.7191 15.049 10.7191 14.891H4.27296C4.27296 15.0557 4.26465 15.2114 4.27474 15.3658C4.29432 15.6626 4.19405 15.8819 3.91639 16H2.44739C2.16676 15.8873 2.06175 15.6705 2.08133 15.3719C2.09201 15.2132 2.08311 15.0533 2.08311 14.8813C1.75145 14.8813 1.44175 14.8831 1.13146 14.8813C0.924994 14.88 0.838373 14.7989 0.836593 14.5917C0.831847 14.1853 0.83244 13.7795 0.836593 13.373C0.838966 13.1653 0.923807 13.0841 1.12968 13.0775C1.23944 13.0738 1.34979 13.0768 1.47083 13.0768C1.47083 12.9969 1.47083 12.9406 1.47083 12.8842C1.47083 12.1447 1.46786 11.4051 1.47201 10.6655C1.47498 10.058 1.86715 9.66003 2.45985 9.65215C2.52333 9.65155 2.58741 9.65215 2.65979 9.65215V9.42501C2.65979 6.55576 2.65979 3.6859 2.65979 0.816647C2.65979 0.770007 2.64674 0.71731 2.66276 0.677333C2.69657 0.590111 2.72624 0.483506 2.79209 0.430203C2.96771 0.289073 3.15934 0.167325 3.35038 0.0479997C3.52956 -0.0640569 3.70399 0.0304341 3.72475 0.243039C3.7295 0.289678 3.72713 0.336924 3.72713 0.383564C3.72713 1.21157 3.72713 2.03958 3.72713 2.86758C3.72713 2.92028 3.72713 2.97298 3.72713 3.02568C3.79951 2.91725 3.83926 2.80641 3.88138 2.69617C4.14955 1.99233 4.64496 1.57076 5.39013 1.55864C6.7915 1.53623 8.19405 1.53744 9.596 1.55743C10.3287 1.56773 10.82 1.97961 11.0988 2.66285C11.1487 2.7846 11.1902 2.90877 11.2359 3.03234C11.246 3.02992 11.256 3.02749 11.2661 3.02507C11.2661 2.96934 11.2661 2.91422 11.2661 2.8585C11.2661 2.0099 11.2661 1.16069 11.2661 0.31209C11.2661 0.19761 11.2833 0.093428 11.3925 0.0310398C11.504 -0.0331656 11.5978 0.0122627 11.6903 0.0764681C11.8256 0.169142 11.9573 0.269084 12.0991 0.350249C12.2747 0.450192 12.3376 0.587083 12.3376 0.795447C12.3317 3.68045 12.3335 6.56545 12.3335 9.45106C12.3335 9.51587 12.3335 9.58068 12.3335 9.6467C12.3898 9.64973 12.4207 9.65518 12.4503 9.65276C13.0597 9.60067 13.5497 10.0465 13.5272 10.7697C13.5052 11.4772 13.5224 12.1858 13.5224 12.8945V13.0793C13.6352 13.0793 13.7313 13.0835 13.8262 13.0781C14 13.0684 14.1217 13.1326 14.1668 13.3137V13.3125ZM4.04691 4.47393V6.8247H10.9458V4.47393H4.04691ZM7.49515 12.5372C8.00479 12.5372 8.51443 12.5384 9.02347 12.5372C9.38182 12.5359 9.56219 12.3579 9.56337 11.9926C9.56634 11.0247 9.56575 10.0568 9.56337 9.08824C9.56219 8.72663 9.37648 8.53765 9.02525 8.53704C8.00597 8.53522 6.98729 8.53522 5.968 8.53704C5.61559 8.53704 5.4287 8.72602 5.4281 9.08642C5.42514 10.0543 5.42514 11.0223 5.4281 11.9908C5.42929 12.3567 5.60965 12.5366 5.96622 12.5378C6.47586 12.5396 6.98551 12.5378 7.49455 12.5378L7.49515 12.5372ZM11.5046 12.4051C11.647 12.4051 11.7894 12.4106 11.9318 12.4039C12.1816 12.3918 12.3608 12.1992 12.3625 11.9502C12.3637 11.6995 12.1899 11.5026 11.9383 11.4941C11.6589 11.4844 11.3789 11.4844 11.0994 11.4941C10.8473 11.5032 10.6746 11.6995 10.677 11.9514C10.6788 12.2004 10.8579 12.3912 11.1083 12.4039C11.24 12.4106 11.3729 12.4051 11.5046 12.4051ZM3.46014 12.4051C3.60254 12.4051 3.74493 12.4112 3.88732 12.4039C4.13709 12.3912 4.31508 12.1986 4.31568 11.949C4.31627 11.6976 4.14303 11.5032 3.88969 11.4941C3.61025 11.4844 3.33021 11.4844 3.05077 11.4941C2.79921 11.5032 2.62656 11.7013 2.62953 11.9533C2.6325 12.2016 2.81286 12.3918 3.06323 12.4039C3.19494 12.41 3.32784 12.4051 3.45955 12.4051H3.46014Z" fill="#373737"/>
<path d="M7.49135 9.33772C7.0173 9.33772 6.54385 9.33833 6.06981 9.33651C6.0093 9.33651 5.93157 9.34439 5.89301 9.31047C5.82656 9.25232 5.74291 9.16328 5.74409 9.08938C5.74587 9.01549 5.83309 8.93069 5.90191 8.87496C5.94225 8.84225 6.01938 8.85255 6.0799 8.85255C7.02205 8.85134 7.9648 8.85134 8.90695 8.85255C8.96747 8.85255 9.04341 8.84346 9.08494 8.87496C9.15139 8.92524 9.21902 8.99974 9.24157 9.07727C9.27123 9.18024 9.21072 9.27231 9.10689 9.30865C9.04578 9.32985 8.97755 9.3353 8.91229 9.33591C8.43825 9.33833 7.9648 9.33712 7.49075 9.33712L7.49135 9.33772Z" fill="#373737"/>
<path d="M7.49104 11.2526C7.02768 11.2526 6.56372 11.2526 6.10036 11.2526C6.05942 11.2526 6.01848 11.2538 5.97814 11.2514C5.82626 11.2423 5.72836 11.1454 5.73133 11.0097C5.73429 10.8795 5.82863 10.7868 5.97221 10.7783C6.04815 10.7741 6.12468 10.7765 6.20122 10.7765C7.0876 10.7765 7.97398 10.7765 8.86037 10.7765C8.89597 10.7765 8.93156 10.7765 8.96716 10.7765C9.14752 10.7801 9.2466 10.8637 9.24838 11.0109C9.25016 11.1599 9.15049 11.2484 8.9725 11.2508C8.83486 11.2532 8.69721 11.2508 8.56016 11.2508C8.20359 11.2508 7.84702 11.2508 7.49045 11.2508L7.49104 11.2526Z" fill="#373737"/>
<path d="M7.4808 9.8132C7.95959 9.8132 8.43838 9.81259 8.91717 9.81381C8.97769 9.81381 9.04117 9.81623 9.09753 9.83501C9.20788 9.87195 9.25713 9.95918 9.24704 10.0773C9.23755 10.1887 9.17703 10.2602 9.06965 10.282C9.01506 10.2929 8.95811 10.2941 8.90234 10.2941C7.96493 10.2947 7.02812 10.2947 6.09071 10.2941C5.84627 10.2941 5.73236 10.2172 5.73236 10.0549C5.73236 9.89194 5.84805 9.8132 6.09012 9.8132C6.55348 9.8132 7.01744 9.8132 7.4808 9.8132Z" fill="#373737"/>
<path d="M7.49796 12.2162C7.01917 12.2162 6.54038 12.2168 6.06159 12.2149C6.00167 12.2149 5.92157 12.2222 5.88538 12.1883C5.82071 12.1277 5.7513 12.0423 5.74121 11.9599C5.72816 11.8515 5.80351 11.7649 5.92216 11.7467C5.97734 11.7383 6.0337 11.7364 6.08947 11.7364C7.02688 11.7364 7.96369 11.7364 8.9011 11.7364C8.95212 11.7364 9.00315 11.7376 9.05358 11.7449C9.17698 11.7631 9.24284 11.8406 9.24818 11.966C9.25352 12.0926 9.18885 12.1732 9.07078 12.2034C9.02213 12.2162 8.96992 12.2156 8.91949 12.2156C8.44604 12.2162 7.972 12.2156 7.49855 12.2156L7.49796 12.2162Z" fill="#373737"/>
</svg>
