<svg width="14" height="14" viewBox="0 0 14 14" fill="none" xmlns="http://www.w3.org/2000/svg">
<path d="M6.58924 13.9998C6.32376 13.9639 6.05663 13.9376 5.79334 13.8908C4.17906 13.6035 2.82835 12.84 1.74422 11.6139C0.755155 10.4955 0.178979 9.18533 0.0365104 7.70156C-0.139383 5.87026 0.328297 4.20628 1.45243 2.74497C2.49354 1.39155 3.85467 0.514376 5.52922 0.16493C7.62104 -0.271329 9.53944 0.156441 11.243 1.44632C12.6124 2.48316 13.476 3.8604 13.8417 5.54108C13.9064 5.83794 13.9313 6.1433 13.9749 6.44454C13.982 6.49329 13.9919 6.54176 14.0003 6.59051V7.41072C13.9888 7.50931 13.9768 7.6079 13.9658 7.70649C13.802 9.18807 13.2417 10.4982 12.2529 11.6158C11.1691 12.8408 9.81889 13.6038 8.20516 13.8908C7.94187 13.9376 7.67474 13.9639 7.40953 13.9998H6.58924ZM13.299 7.00404C13.3039 3.53478 10.4942 0.720045 7.00925 0.703339C3.54233 0.686634 0.705017 3.51752 0.700085 6.99801C0.695153 10.4673 3.5048 13.282 6.9898 13.2987C10.4567 13.3154 13.294 10.4845 13.299 7.00404Z" fill="#373737"/>
<path d="M7.00316 2.90619C9.25306 2.90701 11.1062 4.76488 11.095 7.00861C11.0838 9.26303 9.25197 11.0924 7.00179 11.0962C4.75215 11.1001 2.90198 9.25125 2.90308 7.00067C2.90417 4.7479 4.74887 2.90564 7.00316 2.90646V2.90619ZM8.38455 3.90331C7.45385 3.51169 6.54397 3.51169 5.63491 3.89455C5.63491 3.91728 5.63162 3.92823 5.63546 3.93481C5.92094 4.43186 6.20561 4.92947 6.49575 5.42351C6.51274 5.45254 6.57904 5.47527 6.61466 5.46733C6.87274 5.40817 7.12809 5.40872 7.3859 5.46733C7.42125 5.47527 7.48673 5.45117 7.50399 5.42187C7.79687 4.92426 8.08427 4.42337 8.38455 3.90304V3.90331ZM8.37031 10.0972C8.36373 10.0756 8.36236 10.0616 8.35606 10.0504C8.07468 9.56126 7.79468 9.0716 7.50728 8.58605C7.48755 8.55264 7.40892 8.52854 7.3659 8.53785C7.12124 8.59152 6.8785 8.59782 6.63603 8.53347C6.55822 8.51293 6.51575 8.53127 6.47411 8.60494C6.20944 9.07215 5.93875 9.53552 5.67053 10.0008C5.65327 10.0309 5.64121 10.0641 5.62697 10.0956C6.42917 10.4894 7.54974 10.4899 8.37058 10.0969L8.37031 10.0972ZM5.00942 4.25413C4.20776 4.861 3.75076 5.64753 3.62556 6.62713C3.64474 6.63753 3.65268 6.64575 3.66063 6.64575C4.23872 6.64739 4.81681 6.64903 5.39491 6.64684C5.42066 6.64684 5.46285 6.61672 5.46998 6.59235C5.55354 6.30178 5.70806 6.05421 5.9256 5.83978C5.61984 5.31068 5.31819 4.78843 5.00942 4.25413ZM3.6398 7.35285C3.66885 8.23742 4.31598 9.31452 5.01983 9.73078C5.30833 9.23099 5.59518 8.7301 5.88724 8.23222C5.92999 8.15965 5.89382 8.12624 5.85218 8.08242C5.68258 7.90551 5.55546 7.70175 5.49409 7.46404C5.46943 7.36846 5.42066 7.34984 5.3308 7.35094C4.90284 7.35559 4.47489 7.35285 4.04721 7.35285C3.91159 7.35285 3.77597 7.35285 3.64035 7.35285H3.6398ZM8.98977 4.25331C8.69059 4.77118 8.40373 5.27207 8.1114 5.76967C8.06893 5.84197 8.10345 5.87538 8.14564 5.91947C8.31524 6.09638 8.44236 6.29986 8.50428 6.53757C8.52894 6.63233 8.57634 6.6526 8.66702 6.6515C9.06758 6.64657 9.46814 6.64931 9.86869 6.64931C10.0317 6.64931 10.1945 6.64931 10.3747 6.64931C10.2501 5.6489 9.79088 4.86429 8.98977 4.25331ZM8.07277 8.16293C8.37935 8.69285 8.68292 9.21702 8.99114 9.74995C9.79116 9.13404 10.2523 8.35162 10.3736 7.3534C9.76951 7.3534 9.18758 7.35258 8.60565 7.35559C8.57908 7.35559 8.53579 7.38435 8.52921 7.4079C8.4462 7.69874 8.29195 7.94631 8.07277 8.16293ZM7.00398 7.88031C7.48837 7.87757 7.87742 7.48732 7.87852 7.00286C7.87961 6.5132 7.48371 6.11884 6.99412 6.12185C6.50917 6.12459 6.12067 6.5143 6.11958 6.9993C6.11848 7.48924 6.51383 7.88305 7.00398 7.88031Z" fill="#373737"/>
<path d="M1.82918 7.74616C1.99384 7.74561 2.12726 7.86693 2.18316 8.05261C2.26781 8.33523 2.33576 8.62579 2.4522 8.89527C3.10235 10.4001 4.22785 11.3606 5.81172 11.7848C5.87309 11.8012 5.93556 11.8143 5.99611 11.8338C6.18186 11.8938 6.28844 12.0759 6.24104 12.247C6.18762 12.439 6.01939 12.5453 5.82295 12.5039C5.1391 12.3593 4.50101 12.1 3.9199 11.7122C2.66317 10.8742 1.86507 9.71576 1.50616 8.24869C1.43026 7.93841 1.64013 7.74698 1.83 7.74616H1.82918Z" fill="#373737"/>
<path d="M8.13101 1.48486C8.27073 1.52101 8.44964 1.55716 8.6217 1.61385C10.6656 2.28727 11.9522 3.66972 12.4884 5.75188C12.5516 5.99808 12.4579 6.18786 12.2525 6.24181C12.0462 6.29604 11.8711 6.17554 11.8124 5.92468C11.6637 5.2885 11.4119 4.69834 11.0322 4.16568C10.3223 3.1702 9.37322 2.52361 8.18991 2.21552C8.07046 2.18457 7.9458 2.13857 7.84908 2.06544C7.73511 1.97945 7.71894 1.84143 7.771 1.70477C7.81538 1.58838 7.96662 1.48705 8.13101 1.48431V1.48486Z" fill="#373737"/>
</svg>
