<svg width="20" height="20" viewBox="0 0 20 20" fill="none" xmlns="http://www.w3.org/2000/svg">
<g id="20/User interface/Technician/Black">
<path id="Vector" d="M4 17.1823C4.08011 16.8937 4.12817 16.5731 4.24032 16.3006C4.6729 15.1302 5.48999 14.2645 6.5474 13.6232C8.93458 12.1483 12.1228 12.3887 14.2697 14.2004C15.1348 14.9378 15.7437 15.8517 15.968 16.9899C16 17.1342 16.016 17.2945 16 17.4388C15.968 17.7434 15.7597 17.9038 15.4873 18H4.5287C4.25634 17.9198 4.08011 17.7274 4 17.4709C4 17.3747 4 17.2785 4 17.1823Z" fill="#373737"/>
<path id="Vector_2" d="M10.6647 2C11.0812 2.03206 11.4497 2.12826 11.8182 2.28858C13.0519 2.86573 13.7728 3.84369 13.9811 5.19038C13.9811 5.27054 14.0131 5.31864 14.1093 5.33467C14.4617 5.38277 14.7021 5.67134 14.67 6.04008C14.654 6.37675 14.3816 6.6493 14.0292 6.6493C13.5005 6.6493 12.9878 6.6493 12.4591 6.6493C10.3443 6.6493 8.24546 6.6493 6.13064 6.6493C6.03451 6.6493 5.93838 6.6493 5.84225 6.63327C5.53785 6.55311 5.32957 6.28056 5.34559 5.94389C5.34559 5.63928 5.58591 5.38277 5.90634 5.33467C6.00247 5.33467 6.03451 5.28657 6.05053 5.19038C6.22677 3.57114 7.54052 2.22445 9.14265 2C9.19072 2 9.2548 2 9.33491 2C9.33491 2.08016 9.33491 2.12826 9.33491 2.19238C9.33491 2.8016 9.33491 3.39479 9.33491 4.00401C9.33491 4.32465 9.59125 4.59719 9.89566 4.62926C10.2321 4.66132 10.5365 4.46894 10.6326 4.1483C10.6487 4.06814 10.6647 3.97194 10.6647 3.89178C10.6647 3.33066 10.6647 2.75351 10.6647 2.19238C10.6647 2.12826 10.6647 2.08016 10.6647 2Z" fill="#373737"/>
<path id="Vector_3" d="M13.9976 7.99597C14.0296 10.016 12.3474 12.004 9.9762 11.988C7.62106 11.988 5.97086 9.99998 6.0029 7.99597H13.9815H13.9976Z" fill="#373737"/>
</g>
</svg>
