<svg width="14" height="14" viewBox="0 0 14 14" fill="none" xmlns="http://www.w3.org/2000/svg">
<path d="M6.58849 0.00012207C6.86194 0.00012207 7.1354 0.00012207 7.40885 0.00012207C7.44392 0.00779195 7.47872 0.0201185 7.51434 0.0225839C8.60951 0.0998305 9.634 0.412926 10.5686 0.985702C12.3822 2.09674 13.4985 3.69892 13.8903 5.79472C13.9393 6.05714 13.9635 6.32394 13.9994 6.58882V7.40895C13.9909 7.45744 13.9813 7.50565 13.9741 7.55413C13.9303 7.85545 13.9054 8.16088 13.8407 8.45754C13.4752 10.1383 12.6118 11.5156 11.2424 12.5527C9.53892 13.8429 7.62037 14.2708 5.52866 13.8347C3.85425 13.4854 2.49302 12.6083 1.45155 11.2549C0.327607 9.79401 -0.140384 8.12992 0.0355234 6.29846C0.178003 4.81462 0.754224 3.50444 1.74336 2.386C2.82758 1.15992 4.17839 0.396491 5.79252 0.109144C6.05611 0.0623029 6.32299 0.0360062 6.58849 0.00012207ZM6.99703 1.02049C3.70465 1.02405 1.02959 3.69701 1.01891 6.99368C1.00822 10.278 3.71013 12.9808 7.00059 12.977C10.2927 12.9735 12.968 10.3002 12.979 7.00382C12.9897 3.71947 10.2878 1.01666 6.9973 1.02049H6.99703Z" fill="#373737"/>
<path d="M7.16698 6.99881C7.23 6.99881 7.27877 6.99881 7.32755 6.99881C8.00624 6.99881 8.68521 6.99854 9.36391 6.99936C9.57297 6.99936 9.73436 7.08948 9.83327 7.27411C9.92451 7.44421 9.9152 7.61733 9.813 7.78087C9.72586 7.92029 9.59818 8.00055 9.43214 8.0137C9.38693 8.01726 9.34117 8.01863 9.29568 8.01863C8.44382 8.01891 7.59196 8.01945 6.74009 8.01863C6.33813 8.01809 6.14908 7.82634 6.1488 7.42175C6.14853 6.28305 6.14935 5.14462 6.14771 4.00591C6.14771 3.85526 6.17182 3.71692 6.27484 3.59996C6.41239 3.44355 6.62364 3.3852 6.8212 3.45094C7.01464 3.51532 7.15191 3.69419 7.16397 3.90073C7.1678 3.96893 7.16671 4.03742 7.16671 4.10562C7.16671 5.01642 7.16671 5.92749 7.16671 6.83829C7.16671 6.88705 7.16671 6.93608 7.16671 6.99909L7.16698 6.99881Z" fill="#373737"/>
</svg>
