<svg width="100" height="100" viewBox="0 0 100 100" fill="none" xmlns="http://www.w3.org/2000/svg">
<rect width="100" height="100" rx="50" fill="#FCE6E6"/>
<path d="M20.3474 51.9798C20.5217 51.0963 20.6462 50.1963 20.8951 49.3292C21.6752 46.5713 23.2104 44.3005 25.4759 42.5417C25.8161 42.2775 25.8493 41.9967 25.7995 41.6251C25.1854 36.8854 27.7331 32.7155 32.2226 31.1301C33.6831 30.6099 35.1934 30.4777 36.7287 30.7255C37.0938 30.7833 37.2515 30.6511 37.434 30.3787C40.9111 24.9866 45.8985 22.1874 52.3216 22.0057C59.3006 21.8158 66.1718 26.3738 68.7111 32.8393C69.1426 33.9293 69.3916 35.0936 69.765 36.2166C69.8314 36.4148 70.0306 36.6542 70.2214 36.712C76.0304 38.6608 79.5905 42.6491 80.8518 48.5696C81.8311 53.1359 80.7274 57.3306 77.8727 61.0299C75.5242 64.0686 72.4371 65.9678 68.6364 66.6862C68.0721 66.7935 67.4995 66.8761 66.9269 66.8761C63.8814 66.8926 60.8275 66.8926 57.782 66.8761C56.7447 66.8761 56.031 66.2237 55.9895 65.2989C55.948 64.2833 56.6783 63.5484 57.782 63.5401C60.4541 63.5319 63.1262 63.5401 65.7983 63.5401C70.2629 63.5401 73.6487 61.5253 75.9557 57.826C79.7149 51.7899 77.5407 44.0115 71.2256 40.7003C70.3459 40.2379 69.3584 39.9572 68.3875 39.7012C67.1427 39.3626 66.7278 38.9745 66.5701 37.7112C65.8066 31.5264 61.118 26.6216 54.9356 25.5399C48.8528 24.4747 42.6787 27.4968 39.8489 32.9302C39.0937 34.3752 38.5709 34.6064 36.9942 34.1853C33.0607 33.1283 29.2102 35.9358 29.0774 39.9902C29.0525 40.6673 29.2185 41.3527 29.3679 42.0215C29.6666 43.2849 29.509 43.8216 28.4219 44.5317C25.8825 46.1915 24.3141 48.4952 23.8577 51.4761C22.978 57.2398 27.2767 63.0529 33.0524 63.5319C33.5254 63.5731 33.9985 63.5484 34.4798 63.5484C37.5917 63.5484 40.6954 63.5484 43.8073 63.5484C44.7118 63.5484 45.3923 64.1346 45.5251 64.9604C45.6496 65.7366 45.1931 66.5458 44.4297 66.777C44.1143 66.8761 43.7658 66.8843 43.4339 66.8843C40.1062 66.8843 36.7785 66.9008 33.4508 66.8843C32.7039 66.8843 31.9487 66.7935 31.2185 66.6366C27.2352 65.8026 24.3639 63.4493 22.3059 60.0473C21.2851 58.3545 20.6794 56.5131 20.4553 54.5479C20.4387 54.4323 20.3889 54.3249 20.3474 54.2176C20.3474 53.4662 20.3474 52.723 20.3474 51.9716L20.3474 51.9798Z" fill="#E50000"/>
<path d="M50.6451 77.9906C49.3505 77.5447 49.0933 77.1731 49.0933 75.7776C49.0933 66.9506 49.0933 58.1317 49.0933 49.3046V48.5449C48.836 48.7844 48.6866 48.9248 48.5373 49.0652C46.7448 50.8487 44.9523 52.6323 43.1598 54.4159C42.6785 54.8948 42.1391 55.1673 41.4503 55.0022C40.2139 54.6967 39.7408 53.2681 40.5458 52.2855C40.6537 52.1451 40.7865 52.0213 40.9109 51.8974C43.7075 49.1147 46.5124 46.3237 49.309 43.541C50.338 42.5171 51.1845 42.5171 52.2135 43.541C55.0682 46.3815 57.9312 49.2221 60.7776 52.0708C61.8232 53.1113 61.4414 54.6636 60.0805 55.0022C59.3917 55.1673 58.8523 54.8948 58.371 54.4159C56.5868 52.6323 54.786 50.8487 53.0019 49.0569C52.8525 48.9083 52.7944 48.6771 52.6948 48.4871L52.4376 48.6853V49.3129C52.4376 58.14 52.4376 66.9588 52.4376 75.7859C52.4376 77.1731 52.1637 77.553 50.8691 77.9906H50.6285H50.6451Z" fill="#E50000"/>
</svg>
