<svg width="14" height="14" viewBox="0 0 14 14" fill="none" xmlns="http://www.w3.org/2000/svg">
<path d="M3.2359 13.2997C2.97949 13.2433 2.7142 13.2072 2.46838 13.1273C1.42818 12.7889 0.716869 11.9037 0.702569 10.9511C0.699364 10.7369 0.699611 10.5226 0.702076 10.3084C0.705775 9.96805 1.01347 9.70101 1.39957 9.69995C1.78494 9.6989 2.09313 9.96488 2.1025 10.3054C2.10989 10.5754 2.08943 10.8486 2.13208 11.1146C2.21961 11.6618 2.80049 12.0911 3.4472 12.0959C4.53326 12.104 5.61958 12.0993 6.70589 12.0995C7.9601 12.0997 9.21457 12.1014 10.4688 12.0989C11.1564 12.0974 11.7104 11.733 11.8576 11.1765C11.8978 11.0248 11.8911 10.8632 11.898 10.706C11.9042 10.5657 11.8956 10.425 11.9008 10.2845C11.9121 9.98812 12.1611 9.75298 12.5046 9.70883C12.8357 9.66636 13.152 9.83432 13.2642 10.1121C13.276 10.1415 13.2884 10.1711 13.3002 10.2004V11.1281C13.2926 11.1511 13.281 11.174 13.2778 11.1974C13.1483 12.1498 12.328 12.9645 11.2427 13.2135C11.0859 13.2495 10.9247 13.2714 10.7656 13.3L3.2359 13.3V13.2997Z" fill="white"/>
<path d="M6.22914 3.11874C6.20529 3.15808 6.18829 3.20414 6.15633 3.23552C5.65076 3.73476 5.14391 4.23277 4.63555 4.72952C4.43641 4.92399 4.19542 4.98724 3.92627 4.91503C3.65535 4.84232 3.48361 4.66279 3.42044 4.39486C3.35576 4.12096 3.44885 3.89263 3.64951 3.69692C4.18223 3.1775 4.71216 2.6551 5.2431 2.13394C5.63985 1.7445 6.03584 1.35432 6.43334 0.965628C6.79559 0.61155 7.20503 0.61155 7.56499 0.964882C8.49293 1.87523 9.42113 2.78557 10.3481 3.69717C10.6548 3.99871 10.6837 4.40881 10.4231 4.69989C10.1413 5.01513 9.67151 5.02782 9.3567 4.72205C8.85011 4.22953 8.34783 3.73302 7.84353 3.23826C7.81131 3.20663 7.77757 3.17626 7.71897 3.12148C7.71897 3.20265 7.71897 3.25444 7.71897 3.30599C7.71897 5.46756 7.71922 7.62938 7.7177 9.79096C7.7177 9.88931 7.7139 9.99165 7.68802 10.0858C7.59695 10.4169 7.27555 10.6291 6.93055 10.5967C6.582 10.5641 6.30904 10.2875 6.28469 9.94086C6.28038 9.8791 6.28063 9.8166 6.28063 9.7546C6.28063 7.60125 6.28063 5.44789 6.28063 3.29453L6.28063 3.15111C6.26338 3.14015 6.24588 3.12944 6.22863 3.11849L6.22914 3.11874Z" fill="white"/>
</svg>
