<svg width="20" height="14" viewBox="0 0 20 14" fill="none" xmlns="http://www.w3.org/2000/svg">
<g id="View">
<path id="Vector" d="M19.5076 6.78375C18.7591 4.84768 17.4598 3.17336 15.7701 1.96773C14.0804 0.762094 12.0744 0.0780023 10.0002 0C7.92593 0.0780023 5.92 0.762094 4.2303 1.96773C2.54061 3.17336 1.24122 4.84768 0.492746 6.78375C0.442197 6.92357 0.442197 7.07667 0.492746 7.21649C1.24122 9.15257 2.54061 10.8269 4.2303 12.0325C5.92 13.2381 7.92593 13.9222 10.0002 14.0002C12.0744 13.9222 14.0804 13.2381 15.7701 12.0325C17.4598 10.8269 18.7591 9.15257 19.5076 7.21649C19.5582 7.07667 19.5582 6.92357 19.5076 6.78375ZM10.0002 12.7275C6.6274 12.7275 3.0637 10.2265 1.77186 7.00012C3.0637 3.7737 6.6274 1.27275 10.0002 1.27275C13.373 1.27275 16.9367 3.7737 18.2285 7.00012C16.9367 10.2265 13.373 12.7275 10.0002 12.7275Z" fill="#373737"/>
<path id="Vector_2" d="M10.0001 3.18188C9.24496 3.18188 8.50674 3.40582 7.87883 3.82538C7.25092 4.24493 6.76153 4.84126 6.47253 5.53895C6.18354 6.23665 6.10793 7.00437 6.25525 7.74504C6.40258 8.4857 6.76623 9.16605 7.30023 9.70004C7.83422 10.234 8.51456 10.5977 9.25523 10.745C9.9959 10.8923 10.7636 10.8167 11.4613 10.5277C12.159 10.2387 12.7553 9.74935 13.1749 9.12144C13.5944 8.49353 13.8184 7.75531 13.8184 7.00013C13.8184 5.98747 13.4161 5.01628 12.7 4.30022C11.984 3.58416 11.0128 3.18188 10.0001 3.18188ZM10.0001 9.54563C9.49668 9.54563 9.00454 9.39634 8.58593 9.11664C8.16733 8.83694 7.84106 8.43938 7.6484 7.97425C7.45574 7.50912 7.40533 6.99731 7.50355 6.50353C7.60177 6.00975 7.8442 5.55619 8.20019 5.20019C8.55619 4.8442 9.00975 4.60176 9.50353 4.50355C9.99731 4.40533 10.5091 4.45574 10.9743 4.6484C11.4394 4.84106 11.8369 5.16733 12.1166 5.58593C12.3963 6.00454 12.5456 6.49668 12.5456 7.00013C12.5456 7.67524 12.2774 8.3227 11.8001 8.80007C11.3227 9.27745 10.6752 9.54563 10.0001 9.54563Z" fill="#373737"/>
</g>
</svg>
