<svg width="18" height="18" viewBox="0 0 18 18" fill="none" xmlns="http://www.w3.org/2000/svg">
<g id="20/User interface/View/White">
<g id="View">
<path id="Vector" d="M17.5567 8.80509C16.8831 7.06262 15.7136 5.55573 14.1929 4.47066C12.6722 3.38559 10.8668 2.76991 8.99999 2.69971C7.13317 2.76991 5.32783 3.38559 3.8071 4.47066C2.28638 5.55573 1.11693 7.06262 0.4433 8.80509C0.397806 8.93092 0.397806 9.06871 0.4433 9.19455C1.11693 10.937 2.28638 12.4439 3.8071 13.529C5.32783 14.614 7.13317 15.2297 8.99999 15.2999C10.8668 15.2297 12.6722 14.614 14.1929 13.529C15.7136 12.4439 16.8831 10.937 17.5567 9.19455C17.6022 9.06871 17.6022 8.93092 17.5567 8.80509ZM8.99999 14.1545C5.96449 14.1545 2.75716 11.9036 1.5945 8.99982C2.75716 6.09604 5.96449 3.84518 8.99999 3.84518C12.0355 3.84518 15.2428 6.09604 16.4055 8.99982C15.2428 11.9036 12.0355 14.1545 8.99999 14.1545Z" fill="white"/>
<path id="Vector_2" d="M8.9999 5.56348C8.32024 5.56348 7.65584 5.76502 7.09073 6.14262C6.52561 6.52022 6.08516 7.05691 5.82506 7.68484C5.56497 8.31276 5.49691 9.00371 5.62951 9.67031C5.7621 10.3369 6.08939 10.9492 6.56998 11.4298C7.05058 11.9104 7.66289 12.2377 8.32949 12.3703C8.99609 12.5029 9.68704 12.4348 10.315 12.1747C10.9429 11.9146 11.4796 11.4742 11.8572 10.9091C12.2348 10.344 12.4363 9.67956 12.4363 8.9999C12.4363 8.0885 12.0743 7.21444 11.4298 6.56998C10.7854 5.92553 9.9113 5.56348 8.9999 5.56348ZM8.9999 11.2908C8.54679 11.2908 8.10386 11.1565 7.72712 10.9048C7.35037 10.653 7.05674 10.2952 6.88334 9.87661C6.70994 9.45799 6.66458 8.99736 6.75297 8.55296C6.84137 8.10856 7.05956 7.70035 7.37996 7.37995C7.70035 7.05956 8.10856 6.84137 8.55296 6.75297C8.99736 6.66457 9.45799 6.70994 9.87661 6.88334C10.2952 7.05674 10.653 7.35037 10.9048 7.72712C11.1565 8.10386 11.2908 8.54679 11.2908 8.9999C11.2908 9.6075 11.0495 10.1902 10.6198 10.6198C10.1902 11.0495 9.6075 11.2908 8.9999 11.2908Z" fill="white"/>
</g>
</g>
</svg>
