<svg width="12" height="14" viewBox="0 0 12 14" fill="none" xmlns="http://www.w3.org/2000/svg">
<g id="User">
<path id="Ellipse 33 (Stroke)" fill-rule="evenodd" clip-rule="evenodd" d="M5.88789 1.10728C7.21288 1.10728 8.287 2.1814 8.287 3.5064C8.287 4.83139 7.21288 5.90551 5.88789 5.90551C4.56289 5.90551 3.48877 4.83139 3.48877 3.5064C3.48877 2.1814 4.56289 1.10728 5.88789 1.10728ZM9.39429 3.5064C9.39429 1.56987 7.82442 0 5.88789 0C3.95136 0 2.38149 1.56987 2.38149 3.5064C2.38149 5.44293 3.95136 7.0128 5.88789 7.0128C7.82442 7.0128 9.39429 5.44293 9.39429 3.5064Z" fill="#373737"/>
<path id="Rectangle 2 (Stroke)" fill-rule="evenodd" clip-rule="evenodd" d="M9.87147 9.94613C7.29532 9.02607 4.48011 9.02607 1.90396 9.94613C1.5262 10.081 1.27403 10.4389 1.27403 10.84V11.8111C1.27403 12.3507 1.75198 12.7653 2.28619 12.6889L2.99073 12.5883C4.9123 12.3138 6.86313 12.3138 8.78469 12.5883L9.48923 12.6889C10.0234 12.7653 10.5014 12.3507 10.5014 11.8111V10.84C10.5014 10.4389 10.2492 10.081 9.87147 9.94613ZM1.53154 8.90335C4.34852 7.89729 7.4269 7.89729 10.2439 8.90335C11.0623 9.19566 11.6087 9.97092 11.6087 10.84V11.8111C11.6087 13.0246 10.5339 13.9567 9.33264 13.7851L8.6281 13.6844C6.8104 13.4248 4.96502 13.4248 3.14733 13.6844L2.44279 13.7851C1.24151 13.9567 0.166748 13.0246 0.166748 11.8111V10.84C0.166748 9.97092 0.713087 9.19566 1.53154 8.90335Z" fill="#373737"/>
</g>
</svg>
